<?xml version="1.0" encoding="UTF-8" standalone="no"?>
<!DOCTYPE svg PUBLIC "-//W3C//DTD SVG 20010904//EN"
"http://www.w3.org/TR/2001/REC-SVG-20010904/DTD/svg10.dtd">
<svg
   height="60"
   width="60"
   _SVGFile__filename="oldscale/actions/brackets.svg"
   version="1.0"
   y="0"
   x="0"
   id="svg1"
   xmlns="http://www.w3.org/2000/svg"
   xmlns:rdf="http://www.w3.org/1999/02/22-rdf-syntax-ns#"
   xmlns:dc="http://purl.org/dc/elements/1.1/"
   xmlns:xlink="http://www.w3.org/1999/xlink"
   xmlns:sodipodi="http://sodipodi.sourceforge.net/DTD/sodipodi-0.dtd"
   xmlns:inkscape="http://www.inkscape.org/namespaces/inkscape"
   sodipodi:version="0.32"
   inkscape:version="0.40"
   xmlns:cc="http://web.resource.org/cc/"
   sodipodi:docname="brackets.svg"
   sodipodi:docbase="/home/danny/work/flat/SVG/mono/scalable/actions">
  <sodipodi:namedview
     id="base"
     pagecolor="#ffffff"
     bordercolor="#666666"
     borderopacity="1.0"
     inkscape:pageopacity="0.0"
     inkscape:pageshadow="2"
     inkscape:zoom="3.3182103"
     inkscape:cx="72.554171"
     inkscape:cy="13.819843"
     inkscape:window-width="1024"
     inkscape:window-height="699"
     inkscape:window-x="0"
     inkscape:window-y="0"
     inkscape:current-layer="svg1" />
  <defs
     id="defs3">
    <linearGradient
       id="linearGradient900">
      <stop
         style="stop-color: #000000;stop-opacity: 1.0;"
         id="stop901"
         offset="0" />
      <stop
         style="stop-color:#ffffff;stop-opacity:1;"
         id="stop902"
         offset="1" />
    </linearGradient>
    <linearGradient
       xlink:href="#linearGradient900"
       id="linearGradient903" />
    <linearGradient
       xlink:href="#linearGradient900"
       id="linearGradient904" />
    <linearGradient
       xlink:href="#linearGradient900"
       id="linearGradient905" />
    <linearGradient
       xlink:href="#linearGradient900"
       id="linearGradient906" />
    <linearGradient
       xlink:href="#linearGradient900"
       id="linearGradient907" />
  </defs>
  <path
     id="path1095"
     style="font-size:12.000000;font-weight:900;fill:none;fill-opacity:1.0000000;stroke-width:5.0000000;font-family:VAG Rounded Black SSi;stroke:#ffffff;stroke-opacity:1.0000000;stroke-miterlimit:4.0000000;stroke-dasharray:none;stroke-linejoin:round;stroke-linecap:round;"
     d="M 49.760305,47.384527 L 49.760305,12.615472 L 46.265772,12.615472 C 45.427772,12.615472 44.723854,12.338929 44.153975,11.785843 C 43.600915,11.215994 43.324385,10.495304 43.324385,9.6237733 C 43.324385,8.7690058 43.600915,8.0734545 44.153975,7.5371278 C 44.723854,6.9840420 45.427772,6.7074990 46.265772,6.7074990 L 53.330224,6.7074990 C 54.486673,6.7074990 55.366592,7.0091807 55.969938,7.6125482 C 56.573327,8.2159157 56.875000,9.0958261 56.875000,10.252284 L 56.875000,49.697434 C 56.875000,50.870651 56.564918,51.758941 55.944795,52.362308 C 55.341449,52.982435 54.469897,53.292501 53.330224,53.292501 L 46.265772,53.292501 C 45.410996,53.292501 44.707078,53.007574 44.153975,52.437729 C 43.600915,51.867880 43.324385,51.155573 43.324385,50.300802 C 43.324385,49.446030 43.600915,48.742103 44.153975,48.189017 C 44.723854,47.652691 45.427772,47.384527 46.265772,47.384527 L 49.760305,47.384527 z M 18.309752,37.328402 L 25.147917,29.962290 L 20.999765,25.487313 C 19.994152,24.414659 19.315364,23.685590 18.963397,23.300104 C 18.628193,22.897859 18.368409,22.503993 18.184050,22.118512 C 17.999686,21.716267 17.907507,21.263740 17.907507,20.760932 C 17.907507,19.554197 18.301368,18.556968 19.089099,17.769237 C 19.876830,16.981506 20.765120,16.587641 21.753973,16.587641 C 22.709304,16.587641 23.463512,16.721722 24.016603,16.989886 C 24.569688,17.258049 25.139533,17.777617 25.726142,18.548588 L 29.999996,23.903471 L 34.273850,18.548588 C 34.893977,17.777617 35.472202,17.258049 36.008528,16.989886 C 36.544855,16.721722 37.290710,16.587641 38.246015,16.587641 C 39.234872,16.587641 40.123158,16.973127 40.910915,17.744094 C 41.698628,18.515066 42.092507,19.520678 42.092507,20.760932 C 42.092507,21.263740 42.000301,21.716267 41.815934,22.118512 C 41.631566,22.503993 41.363403,22.897859 41.011444,23.300104 C 40.676261,23.685590 40.005853,24.414659 39.000219,25.487313 L 34.852075,29.962290 L 41.690262,37.328402 C 42.126016,37.797688 42.494752,38.308872 42.796425,38.861957 C 43.114874,39.398284 43.274099,40.035174 43.274099,40.772623 C 43.274099,41.996118 42.880220,42.984971 42.092507,43.739179 C 41.304750,44.476628 40.332669,44.845355 39.176220,44.845355 C 38.422016,44.845355 37.801893,44.686131 37.315810,44.367690 C 36.846541,44.049245 36.276692,43.521298 35.606283,42.783848 L 29.999996,36.146806 L 24.393705,42.783848 C 23.807100,43.454257 23.254010,43.965445 22.734447,44.317408 C 22.214880,44.669371 21.577989,44.845355 20.823781,44.845355 C 19.667328,44.845355 18.695233,44.476628 17.907507,43.739179 C 17.119776,42.984971 16.725911,41.996118 16.725911,40.772623 C 16.725911,40.051933 16.859992,39.440186 17.128156,38.937382 C 17.413078,38.434574 17.806943,37.898247 18.309752,37.328402 z M 10.214570,12.615472 L 10.214570,47.384527 L 13.734212,47.384527 C 14.588983,47.384527 15.284530,47.644307 15.820857,48.163874 C 16.373947,48.700201 16.650490,49.412512 16.650490,50.300802 C 16.650490,51.189092 16.382327,51.909782 15.846000,52.462868 C 15.309673,53.015958 14.605742,53.292501 13.734212,53.292501 L 6.6697848,53.292501 C 5.5300906,53.292501 4.6501802,52.982435 4.0300492,52.362308 C 3.4266817,51.758941 3.1250001,50.870651 3.1250001,49.697434 L 3.1250001,10.252284 C 3.1250001,9.0958261 3.4266817,8.2159157 4.0300492,7.6125482 C 4.6334167,7.0091807 5.5133315,6.7074990 6.6697848,6.7074990 L 13.734212,6.7074990 C 14.588983,6.7074990 15.284530,6.9756624 15.820857,7.5119891 C 16.373947,8.0315566 16.650490,8.7354833 16.650490,9.6237733 C 16.650490,10.528827 16.373947,11.257896 15.820857,11.810982 C 15.284530,12.347309 14.588983,12.615472 13.734212,12.615472 L 10.214570,12.615472 z " />
  <path
     id="path836"
     style="font-size:12.000000;font-weight:900;fill:#000000;fill-opacity:1.0000000;stroke-width:1.0000000;font-family:VAG Rounded Black SSi"
     d="M 49.760305,47.384527 L 49.760305,12.615472 L 46.265772,12.615472 C 45.427772,12.615472 44.723854,12.338929 44.153975,11.785843 C 43.600915,11.215994 43.324385,10.495304 43.324385,9.6237733 C 43.324385,8.7690058 43.600915,8.0734545 44.153975,7.5371278 C 44.723854,6.9840420 45.427772,6.7074990 46.265772,6.7074990 L 53.330224,6.7074990 C 54.486673,6.7074990 55.366592,7.0091807 55.969938,7.6125482 C 56.573327,8.2159157 56.875000,9.0958261 56.875000,10.252284 L 56.875000,49.697434 C 56.875000,50.870651 56.564918,51.758941 55.944795,52.362308 C 55.341449,52.982435 54.469897,53.292501 53.330224,53.292501 L 46.265772,53.292501 C 45.410996,53.292501 44.707078,53.007574 44.153975,52.437729 C 43.600915,51.867880 43.324385,51.155573 43.324385,50.300802 C 43.324385,49.446030 43.600915,48.742103 44.153975,48.189017 C 44.723854,47.652691 45.427772,47.384527 46.265772,47.384527 L 49.760305,47.384527 z M 18.309752,37.328402 L 25.147917,29.962290 L 20.999765,25.487313 C 19.994152,24.414659 19.315364,23.685590 18.963397,23.300104 C 18.628193,22.897859 18.368409,22.503993 18.184050,22.118512 C 17.999686,21.716267 17.907507,21.263740 17.907507,20.760932 C 17.907507,19.554197 18.301368,18.556968 19.089099,17.769237 C 19.876830,16.981506 20.765120,16.587641 21.753973,16.587641 C 22.709304,16.587641 23.463512,16.721722 24.016603,16.989886 C 24.569688,17.258049 25.139533,17.777617 25.726142,18.548588 L 29.999996,23.903471 L 34.273850,18.548588 C 34.893977,17.777617 35.472202,17.258049 36.008528,16.989886 C 36.544855,16.721722 37.290710,16.587641 38.246015,16.587641 C 39.234872,16.587641 40.123158,16.973127 40.910915,17.744094 C 41.698628,18.515066 42.092507,19.520678 42.092507,20.760932 C 42.092507,21.263740 42.000301,21.716267 41.815934,22.118512 C 41.631566,22.503993 41.363403,22.897859 41.011444,23.300104 C 40.676261,23.685590 40.005853,24.414659 39.000219,25.487313 L 34.852075,29.962290 L 41.690262,37.328402 C 42.126016,37.797688 42.494752,38.308872 42.796425,38.861957 C 43.114874,39.398284 43.274099,40.035174 43.274099,40.772623 C 43.274099,41.996118 42.880220,42.984971 42.092507,43.739179 C 41.304750,44.476628 40.332669,44.845355 39.176220,44.845355 C 38.422016,44.845355 37.801893,44.686131 37.315810,44.367690 C 36.846541,44.049245 36.276692,43.521298 35.606283,42.783848 L 29.999996,36.146806 L 24.393705,42.783848 C 23.807100,43.454257 23.254010,43.965445 22.734447,44.317408 C 22.214880,44.669371 21.577989,44.845355 20.823781,44.845355 C 19.667328,44.845355 18.695233,44.476628 17.907507,43.739179 C 17.119776,42.984971 16.725911,41.996118 16.725911,40.772623 C 16.725911,40.051933 16.859992,39.440186 17.128156,38.937382 C 17.413078,38.434574 17.806943,37.898247 18.309752,37.328402 z M 10.214570,12.615472 L 10.214570,47.384527 L 13.734212,47.384527 C 14.588983,47.384527 15.284530,47.644307 15.820857,48.163874 C 16.373947,48.700201 16.650490,49.412512 16.650490,50.300802 C 16.650490,51.189092 16.382327,51.909782 15.846000,52.462868 C 15.309673,53.015958 14.605742,53.292501 13.734212,53.292501 L 6.6697848,53.292501 C 5.5300906,53.292501 4.6501802,52.982435 4.0300492,52.362308 C 3.4266817,51.758941 3.1250001,50.870651 3.1250001,49.697434 L 3.1250001,10.252284 C 3.1250001,9.0958261 3.4266817,8.2159157 4.0300492,7.6125482 C 4.6334167,7.0091807 5.5133315,6.7074990 6.6697848,6.7074990 L 13.734212,6.7074990 C 14.588983,6.7074990 15.284530,6.9756624 15.820857,7.5119891 C 16.373947,8.0315566 16.650490,8.7354833 16.650490,9.6237733 C 16.650490,10.528827 16.373947,11.257896 15.820857,11.810982 C 15.284530,12.347309 14.588983,12.615472 13.734212,12.615472 L 10.214570,12.615472 z " />
  <metadata
     id="metadata13">
    <rdf:RDF
       id="RDF13">
      <Work
         rdf:about=""
         id="Work14">
        <dc:title
           id="title15">Part of the Flat Icon Collection (Thu Aug 26 14:38:01 2004)</dc:title>
        <dc:description
           id="description17" />
        <dc:subject
           id="subject18">
          <rdf:Bag
             id="Bag19">
            <rdf:li
               id="li20" />
          </rdf:Bag>
        </dc:subject>
        <dc:publisher
           id="publisher21">
          <Agent
             rdf:about=""
             id="Agent22">
            <dc:title
               id="title23" />
          </Agent>
        </dc:publisher>
        <dc:creator
           id="creator24">
          <Agent
             rdf:about=""
             id="Agent25">
            <dc:title
               id="title26">Danny Allen</dc:title>
          </Agent>
        </dc:creator>
        <dc:rights
           id="rights28">
          <Agent
             rdf:about=""
             id="Agent29">
            <dc:title
               id="title30">Danny Allen</dc:title>
          </Agent>
        </dc:rights>
        <dc:date
           id="date32" />
        <dc:format
           id="format33">image/svg+xml</dc:format>
        <dc:type
           rdf:resource="http://purl.org/dc/dcmitype/StillImage"
           id="type35" />
        <license
           rdf:resource="http://creativecommons.org/licenses/LGPL/2.1/"
           id="license36">
          <dc:date
             id="date37" />
        </license>
        <dc:language
           id="language38">en</dc:language>
      </Work>
      <cc:Work
         rdf:about=""
         id="Work41">
        <dc:format
           id="format42">image/svg+xml</dc:format>
        <dc:type
           id="type44"
           rdf:resource="http://purl.org/dc/dcmitype/StillImage" />
      </cc:Work>
    </rdf:RDF>
  </metadata>
</svg>
