<?xml version="1.0" encoding="UTF-8" standalone="no"?>
<!-- Created with Inkscape (http://www.inkscape.org/) -->

<svg
   xmlns:dc="http://purl.org/dc/elements/1.1/"
   xmlns:cc="http://creativecommons.org/ns#"
   xmlns:rdf="http://www.w3.org/1999/02/22-rdf-syntax-ns#"
   xmlns:svg="http://www.w3.org/2000/svg"
   xmlns="http://www.w3.org/2000/svg"
   xmlns:xlink="http://www.w3.org/1999/xlink"
   version="1.0"
   width="60"
   height="60"
   id="svg1">
  <defs
     id="defs3">
    <linearGradient
       id="linearGradient772">
      <stop
         id="stop773"
         style="stop-color:#000000;stop-opacity:1"
         offset="0" />
      <stop
         id="stop774"
         style="stop-color:#ffffff;stop-opacity:1"
         offset="1" />
    </linearGradient>
    <linearGradient
       id="linearGradient775"
       xlink:href="#linearGradient772" />
  </defs>
  <metadata
     id="metadata12">
    <rdf:RDF>
      <Work
         id="Work3091"
         rdf:about="">
        <dc:title>Part of the Flat Icon Collection (Thu Aug 26 14:31:40 2004)</dc:title>
        <dc:description />
        <dc:subject>
          <rdf:Bag>
            <rdf:li />
          </rdf:Bag>
        </dc:subject>
        <dc:publisher>
          <Agent
             id="Agent3093"
             rdf:about="">
            <dc:title />
          </Agent>
        </dc:publisher>
        <dc:creator>
          <Agent
             id="Agent3095"
             rdf:about="">
            <dc:title>Danny Allen</dc:title>
          </Agent>
        </dc:creator>
        <dc:rights>
          <Agent
             id="Agent3097"
             rdf:about="">
            <dc:title>Danny Allen</dc:title>
          </Agent>
        </dc:rights>
        <dc:date />
        <dc:format>image/svg+xml</dc:format>
        <dc:type
           rdf:resource="http://purl.org/dc/dcmitype/StillImage" />
        <license
           id="license3099"
           rdf:resource="http://creativecommons.org/licenses/LGPL/2.1/">
          <dc:date />
        </license>
        <dc:language>en</dc:language>
      </Work>
      <cc:Work
         rdf:about="">
        <dc:format>image/svg+xml</dc:format>
        <dc:type
           rdf:resource="http://purl.org/dc/dcmitype/StillImage" />
        <dc:title></dc:title>
      </cc:Work>
    </rdf:RDF>
  </metadata>
  <path
     d="m 15.5,54.375041 11.75,-12.75 c 4.186768,2.036904 9.103998,2.592347 13.90625,1.09375 7.602074,-2.372314 12.606453,-9.081153 13.21875,-16.5625 l -18.71875,5.84375 -4.375,-14.03125 18.5625,-5.78125 C 46.249344,8.0452508 40.97374,5.6086406 35.4375,5.6250412 c -1.845413,0.00547 -3.706707,0.2958787 -5.5625,0.875 -9.998565,3.1201656 -15.557665,13.7826868 -12.4375,23.7812498 0.521545,1.671288 1.316507,3.158908 2.21875,4.5625 l -14.03125,15.25"
     id="path1734"
     style="font-size:12px;fill:none;stroke:#ffffff;stroke-width:10;stroke-linecap:round;stroke-linejoin:round;stroke-miterlimit:4;stroke-opacity:1" />
  <g
     transform="matrix(0.886494,0,0,0.886494,3.9606,2.84976)"
     id="g1728">
    <path
       d="M 21.09375,32.4375 1.875,53.28125 l 0,4.84375 11.15625,0 16.5,-17.90625 -8.4375,-7.78125 z"
       id="rect587"
       style="font-size:12px;fill:#ffffff;fill-opacity:1;fill-rule:evenodd;stroke:none" />
    <path
       d="m 13.03125,58.125 16.5,-17.90625 L 21.09375,32.4375 1.875,53.28125"
       id="path1727"
       style="font-size:12px;fill:none;stroke:#000000;stroke-width:5.64019203;stroke-linecap:round;stroke-linejoin:round;stroke-miterlimit:4;stroke-opacity:1" />
    <path
       d="m 15.341896,32.111168 c 3.095238,9.918679 13.620486,15.437268 23.539166,12.342031 7.541337,-2.353359 12.49604,-9.011879 13.103445,-16.433453 L 33.409354,33.816333 29.070916,19.913813 47.473008,14.17123 C 42.718757,8.6923032 35.02979,6.216339 27.665926,8.5143163 17.747247,11.609553 12.24666,22.19249 15.341896,32.111168 z"
       transform="matrix(1.137125,0,0,1.137125,-2.240955,-5.580252)"
       id="path586"
       style="font-size:12px;fill:#ffffff;fill-opacity:1;fill-rule:evenodd;stroke:#000000;stroke-width:4.96004772;stroke-linecap:round;stroke-linejoin:round;stroke-miterlimit:4;stroke-opacity:1" />
  </g>
</svg>
