<?xml version="1.0" encoding="UTF-8" standalone="no"?>
<svg
   xmlns:dc="http://purl.org/dc/elements/1.1/"
   xmlns:cc="http://web.resource.org/cc/"
   xmlns:rdf="http://www.w3.org/1999/02/22-rdf-syntax-ns#"
   xmlns:svg="http://www.w3.org/2000/svg"
   xmlns="http://www.w3.org/2000/svg"
   xmlns:sodipodi="http://inkscape.sourceforge.net/DTD/sodipodi-0.dtd"
   xmlns:inkscape="http://www.inkscape.org/namespaces/inkscape"
   sodipodi:docbase="/home/danny/work/icons/mono/scalable/actions"
   sodipodi:docname="audioscrobbler.svgz"
   inkscape:version="0.41"
   sodipodi:version="0.32"
   id="svg1"
   x="0"
   y="0"
   version="1.0"
   _SVGFile__filename="oldscale/apps/audacity.svg"
   width="60"
   height="60">
  <sodipodi:namedview
     inkscape:current-layer="svg1"
     inkscape:window-y="0"
     inkscape:window-x="0"
     inkscape:window-height="687"
     inkscape:window-width="1020"
     inkscape:cy="22.738362"
     inkscape:cx="47.283382"
     inkscape:zoom="7.2144135"
     inkscape:pageshadow="2"
     inkscape:pageopacity="0.0000000"
     borderopacity="1.0"
     bordercolor="#666666"
     pagecolor="#ffffff"
     id="base" />
  <defs
     id="defs3" />
  <metadata
     id="metadata10">
    <RDF
       id="RDF11">
      <Work
         id="Work12"
         about="">
        <title
           id="title13">Part of the Flat Icon Collection (Thu Aug 26 14:31:40 2004)</title>
        <description
           id="description15" />
        <subject
           id="subject16">
          <Bag
             id="Bag17">
            <li
               id="li18" />
          </Bag>
        </subject>
        <publisher
           id="publisher19">
          <Agent
             id="Agent20"
             about="">
            <title
               id="title21" />
          </Agent>
        </publisher>
        <creator
           id="creator22">
          <Agent
             id="Agent23"
             about="">
            <title
               id="title24">Danny Allen</title>
          </Agent>
        </creator>
        <rights
           id="rights26">
          <Agent
             id="Agent27"
             about="">
            <title
               id="title28">Danny Allen</title>
          </Agent>
        </rights>
        <date
           id="date30" />
        <format
           id="format31">image/svg+xml</format>
        <type
           resource="http://purl.org/dc/dcmitype/StillImage"
           id="type33" />
        <license
           resource="http://creativecommons.org/licenses/LGPL/2.1/"
           id="license34">
          <date
             id="date35" />
        </license>
        <language
           id="language36">en</language>
      </Work>
    </RDF>
    <rdf:RDF
       id="RDF39">
      <cc:Work
         id="Work40"
         rdf:about="">
        <dc:format
           id="format41">image/svg+xml</dc:format>
        <dc:type
           rdf:resource="http://purl.org/dc/dcmitype/StillImage"
           id="type43" />
      </cc:Work>
    </rdf:RDF>
  </metadata>
  <path
     id="path1102"
     d="M 46.096364,20.740998 C 51.308374,21.808428 55.312716,26.421679 55.312716,31.947780 C 55.312716,37.491642 51.363855,42.106612 46.126835,43.154572 L 46.096364,20.740998 z "
     style="font-size:12.000000;fill:none;fill-opacity:1.0000000;fill-rule:evenodd;stroke:#ffffff;stroke-width:8.1250000;stroke-linecap:round;stroke-linejoin:round;stroke-miterlimit:4.0000000;stroke-opacity:1.0000000" />
  <path
     id="path1106"
     d="M 13.903630,20.740998 C 8.6916280,21.808428 4.6872795,26.421679 4.6872795,31.947780 C 4.6872795,37.491642 8.6361408,42.106612 13.873168,43.154572 L 13.903630,20.740998 z "
     style="font-size:12.000000;fill:none;fill-opacity:1.0000000;fill-rule:evenodd;stroke:#ffffff;stroke-width:8.1250000;stroke-linecap:round;stroke-linejoin:round;stroke-miterlimit:4.0000000;stroke-opacity:1.0000000" />
  <path
     d="M 13.900219,20.637467 L 13.900219,17.010394 C 16.318274,10.965275 20.551502,5.0014784 30.159328,4.6874994 C 39.767146,5.1291613 43.672454,10.663020 46.090500,16.859271 L 46.090500,21.090853"
     style="font-size:12.000000;fill:none;fill-opacity:0.75000000;fill-rule:evenodd;stroke:#ffffff;stroke-width:8.1250000;stroke-linecap:round;stroke-linejoin:round;stroke-miterlimit:4.0000000;stroke-opacity:1.0000000"
     id="path1101" />
  <path
     d="M 13.900227,20.637467 L 13.900227,17.010394 C 16.318282,10.965275 20.551510,5.0014780 30.159336,4.6874990 C 39.767154,5.1291610 43.672462,10.663020 46.090508,16.859271 L 46.090508,21.090853"
     style="font-size:12.000000;fill:none;fill-opacity:0.75000000;fill-rule:evenodd;stroke:#000000;stroke-width:3.1249998;stroke-linecap:round;stroke-linejoin:round;stroke-opacity:1.0000000"
     id="path876" />
  <path
     id="path880"
     d="M 46.096366,20.740998 C 51.308376,21.808428 55.312718,26.421679 55.312718,31.947780 C 55.312718,37.491642 51.363857,42.106612 46.126837,43.154572 L 46.096366,20.740998 z "
     style="font-size:12.000000;fill:#000000;fill-opacity:1.0000000;fill-rule:evenodd;stroke:#000000;stroke-width:3.1249983;stroke-linecap:round;stroke-linejoin:round;stroke-opacity:1.0000000" />
  <path
     id="path2186"
     d="M 13.903632,20.740998 C 8.6916300,21.808428 4.6872815,26.421679 4.6872815,31.947780 C 4.6872815,37.491642 8.6361428,42.106612 13.873170,43.154572 L 13.903632,20.740998 z "
     style="font-size:12.000000;fill:#000000;fill-opacity:1.0000000;fill-rule:evenodd;stroke:#000000;stroke-width:3.1249983;stroke-linecap:round;stroke-linejoin:round;stroke-opacity:1.0000000" />
  <path
     sodipodi:nodetypes="cccccccc"
     id="path1719"
     d="M 12.814398,55.312501 L 47.185596,55.312501 C 45.578112,50.314097 42.972793,45.537162 38.856086,42.674623 C 41.954932,40.110641 43.978255,36.284774 43.978256,31.951575 C 43.978256,24.237373 37.714198,17.973316 29.999997,17.973316 C 22.285784,17.973316 16.021737,24.237373 16.021738,31.951575 C 16.021738,36.437635 18.189882,40.380310 21.479004,42.937913 C 17.248393,45.688036 14.516418,50.361443 12.814398,55.312501 z "
     style="font-size:12.000000;fill:none;fill-opacity:1.0000000;fill-rule:evenodd;stroke:#ffffff;stroke-width:8.1249924;stroke-linecap:round;stroke-linejoin:round;stroke-miterlimit:4.0000000;stroke-opacity:1.0000000" />
  <path
     sodipodi:nodetypes="ccccc"
     id="path966"
     d="M 12.818685,55.313056 L 47.181302,55.313056 C 45.491425,50.058453 42.743625,44.977528 38.247023,42.186536 C 33.720005,41.989706 28.020106,42.186536 22.508944,42.186536 C 17.628404,44.784239 14.664216,49.944534 12.818685,55.313056 z "
     style="font-size:12.000000;fill:#ffffff;fill-opacity:1.0000000;fill-rule:evenodd;stroke:#000000;stroke-width:3.1249974;stroke-linecap:round;stroke-linejoin:round;stroke-miterlimit:4.0000000;stroke-opacity:1.0000000" />
  <path
     id="path710"
     d="M 43.975000,31.947784 C 43.975000,39.661988 37.714193,45.922794 29.999990,45.922794 C 22.285776,45.922794 16.024975,39.661988 16.024975,31.947784 C 16.024975,24.233581 22.285776,17.972776 29.999990,17.972776 C 37.714193,17.972776 43.975000,24.233581 43.975000,31.947784 z "
     style="font-size:12.000000;fill:#ffffff;fill-opacity:1.0000000;fill-rule:evenodd;stroke:#000000;stroke-width:3.1250000;stroke-linecap:round;stroke-linejoin:round;stroke-miterlimit:4.0000000;stroke-opacity:1.0000000" />
</svg>
