<?xml version="1.0" encoding="UTF-8" standalone="no"?>
<svg
   xmlns:dc="http://purl.org/dc/elements/1.1/"
   xmlns:cc="http://creativecommons.org/ns#"
   xmlns:rdf="http://www.w3.org/1999/02/22-rdf-syntax-ns#"
   xmlns:svg="http://www.w3.org/2000/svg"
   xmlns="http://www.w3.org/2000/svg"
   xmlns:sodipodi="http://sodipodi.sourceforge.net/DTD/sodipodi-0.dtd"
   xmlns:inkscape="http://www.inkscape.org/namespaces/inkscape"
   height="60"
   width="60"
   _SVGFile__filename="oldscale/apps/konserve.svg"
   version="1.0"
   y="0"
   x="0"
   id="svg1"
   sodipodi:version="0.32"
   inkscape:version="0.46"
   sodipodi:docname="media-tape.svgz"
   sodipodi:docbase="/home/kde-devel/kde/src/KDE/kdeartwork/IconThemes/primary/scalable/devices"
   inkscape:output_extension="org.inkscape.output.svgz.inkscape">
  <sodipodi:namedview
     id="base"
     pagecolor="#ffffff"
     bordercolor="#666666"
     borderopacity="1.0"
     inkscape:pageopacity="0.0000000"
     inkscape:pageshadow="2"
     inkscape:zoom="7.5359678"
     inkscape:cx="38.916751"
     inkscape:cy="19.187368"
     inkscape:window-width="1152"
     inkscape:window-height="703"
     inkscape:window-x="0"
     inkscape:window-y="0"
     inkscape:current-layer="svg1"
     showgrid="false" />
  <defs
     id="defs3">
    <inkscape:perspective
       sodipodi:type="inkscape:persp3d"
       inkscape:vp_x="0 : 30 : 1"
       inkscape:vp_y="0 : 1000 : 0"
       inkscape:vp_z="60 : 30 : 1"
       inkscape:persp3d-origin="30 : 20 : 1"
       id="perspective20" />
  </defs>
  <metadata
     id="metadata12">
    <RDF
       id="RDF13">
      <Work
         about=""
         id="Work14">
        <format
           id="format15">image/svg+xml</format>
        <type
           id="type17"
           resource="http://purl.org/dc/dcmitype/StillImage" />
      </Work>
    </RDF>
    <rdf:RDF>
      <cc:Work
         rdf:about="">
        <dc:format>image/svg+xml</dc:format>
        <dc:type
           rdf:resource="http://purl.org/dc/dcmitype/StillImage" />
      </cc:Work>
    </rdf:RDF>
  </metadata>
  <path
     id="path1727"
     d="M 6.678384,15.193173 C 5.576365,15.193173 4.68918,16.080358 4.68918,17.182376 L 4.68918,42.817624 C 4.68918,43.919643 5.576365,44.806828 6.678384,44.806828 L 53.321616,44.806828 C 54.423635,44.806828 55.31082,43.919643 55.31082,42.817624 L 55.31082,17.182376 C 55.31082,16.080358 54.423635,15.193173 53.321616,15.193173 L 6.678384,15.193173 z "
     style="font-size:12px;fill:none;fill-opacity:1;fill-rule:evenodd;stroke:#ffffff;stroke-width:8.125;stroke-linecap:round;stroke-linejoin:round;stroke-miterlimit:4;stroke-opacity:1" />
  <path
     style="font-size:12px;fill:#ffffff;fill-opacity:1;fill-rule:evenodd;stroke:none;stroke-width:3.12499905000000000;stroke-linecap:round;stroke-linejoin:round;stroke-opacity:1"
     d="M 6.6783834,15.193179 C 5.5763641,15.193179 4.6891788,16.080365 4.6891788,17.182383 L 4.6891788,42.817639 C 4.6891788,43.919658 5.5763641,44.806843 6.6783834,44.806843 L 53.32163,44.806843 C 54.423649,44.806843 55.310834,43.919658 55.310834,42.817639 L 55.310834,17.182383 C 55.310834,16.080365 54.423649,15.193179 53.32163,15.193179 L 6.6783834,15.193179 z "
     id="rect745" />
  <path
     style="font-size:12px;fill:#ffffff;fill-opacity:1;fill-rule:evenodd;stroke:#000000;stroke-width:3.12499881000000013;stroke-linecap:round;stroke-linejoin:round;stroke-opacity:1"
     d="M 12.457346,44.680285 L 16.884311,37.012568 L 42.956895,37.012568 L 47.542657,44.702226"
     id="path746"
     sodipodi:nodetypes="cccc" />
  <g
     style="font-size:12px"
     transform="matrix(0.9946023,0,0,0.9946023,0.2597809,-10.703545)"
     id="g1544">
    <path
       style="fill:#ffffff;fill-opacity:1;fill-rule:evenodd;stroke:#000000;stroke-width:3.14195848000000000;stroke-linecap:round;stroke-linejoin:round;stroke-opacity:1"
       d="M 25.06646,20.04634 C 25.06646,24.61175 21.36121,28.31701 16.7958,28.31701 C 12.2304,28.31701 8.525142,24.61175 8.525142,20.04634 C 8.525142,15.48094 12.2304,11.77568 16.7958,11.77568 C 21.36121,11.77568 25.06646,15.48094 25.06646,20.04634 z "
       transform="translate(0.95872,19.6057)"
       id="path747" />
    <path
       style="fill:#ffffff;fill-opacity:1;fill-rule:evenodd;stroke:#000000;stroke-width:1.8851757;stroke-linecap:round;stroke-linejoin:round;stroke-miterlimit:4;stroke-dasharray:none;stroke-opacity:1"
       d="M 14.75995,51.15675 C 14.75995,53.36922 12.96433,55.16484 10.75186,55.16484 C 8.539394,55.16484 6.74377,53.36922 6.74377,51.15675 C 6.74377,48.94429 8.539394,47.14866 10.75186,47.14866 C 12.96433,47.14866 14.75995,48.94429 14.75995,51.15675 z "
       transform="translate(7.002663,-11.50471)"
       id="path749" />
  </g>
  <g
     style="font-size:12px"
     transform="matrix(0.9946023,0,0,0.9946023,0.2597809,-10.703545)"
     id="g1541">
    <path
       style="fill:#ffffff;fill-opacity:1;fill-rule:evenodd;stroke:#000000;stroke-width:3.14195848000000000;stroke-linecap:round;stroke-linejoin:round;stroke-opacity:1"
       d="M 25.06646,20.04634 C 25.06646,24.61175 21.36121,28.31701 16.7958,28.31701 C 12.2304,28.31701 8.525142,24.61175 8.525142,20.04634 C 8.525142,15.48094 12.2304,11.77568 16.7958,11.77568 C 21.36121,11.77568 25.06646,15.48094 25.06646,20.04634 z "
       transform="translate(25.25292,19.6057)"
       id="path748" />
    <path
       style="fill:#ffffff;fill-opacity:1;fill-rule:evenodd;stroke:#000000;stroke-width:1.8851757;stroke-linecap:round;stroke-linejoin:round;stroke-miterlimit:4;stroke-dasharray:none;stroke-opacity:1"
       d="M 14.75995,51.15675 C 14.75995,53.36922 12.96433,55.16484 10.75186,55.16484 C 8.539394,55.16484 6.74377,53.36922 6.74377,51.15675 C 6.74377,48.94429 8.539394,47.14866 10.75186,47.14866 C 12.96433,47.14866 14.75995,48.94429 14.75995,51.15675 z "
       transform="translate(31.29686,-11.50471)"
       id="path750" />
  </g>
  <path
     style="font-size:12px;fill:none;fill-opacity:1;fill-rule:evenodd;stroke:#000000;stroke-width:3.12499905;stroke-linecap:round;stroke-linejoin:round;stroke-opacity:1"
     d="M 6.6783834,15.193179 C 5.5763641,15.193179 4.6891788,16.080365 4.6891788,17.182383 L 4.6891788,42.817639 C 4.6891788,43.919658 5.5763641,44.806843 6.6783834,44.806843 L 53.32163,44.806843 C 54.423649,44.806843 55.310834,43.919658 55.310834,42.817639 L 55.310834,17.182383 C 55.310834,16.080365 54.423649,15.193179 53.32163,15.193179 L 6.6783834,15.193179 z "
     id="path3180" />
</svg>
