<?xml version="1.0" encoding="UTF-8" standalone="no"?>
<svg
   xmlns:dc="http://purl.org/dc/elements/1.1/"
   xmlns:cc="http://creativecommons.org/ns#"
   xmlns:rdf="http://www.w3.org/1999/02/22-rdf-syntax-ns#"
   xmlns:svg="http://www.w3.org/2000/svg"
   xmlns="http://www.w3.org/2000/svg"
   xmlns:xlink="http://www.w3.org/1999/xlink"
   xmlns:sodipodi="http://sodipodi.sourceforge.net/DTD/sodipodi-0.dtd"
   xmlns:inkscape="http://www.inkscape.org/namespaces/inkscape"
   sodipodi:docbase="/home/danny/work/icons/primary/scalable/actions"
   sodipodi:docname="phone.svgz"
   inkscape:version="0.46"
   sodipodi:version="0.32"
   id="svg1"
   x="0"
   y="0"
   version="1.0"
   _SVGFile__filename="oldscale/actions/msn_phone.svg"
   width="60"
   height="60"
   inkscape:output_extension="org.inkscape.output.svgz.inkscape">
  <sodipodi:namedview
     inkscape:current-layer="svg1"
     inkscape:window-y="0"
     inkscape:window-x="0"
     inkscape:window-height="691"
     inkscape:window-width="1020"
     inkscape:cy="22.287799"
     inkscape:cx="42.020871"
     inkscape:zoom="6.2808417"
     inkscape:pageshadow="2"
     inkscape:pageopacity="0.0"
     borderopacity="1.0"
     bordercolor="#666666"
     pagecolor="#ffffff"
     id="base"
     showgrid="false" />
  <defs
     id="defs3">
    <inkscape:perspective
       sodipodi:type="inkscape:persp3d"
       inkscape:vp_x="0 : 30 : 1"
       inkscape:vp_y="0 : 1000 : 0"
       inkscape:vp_z="60 : 30 : 1"
       inkscape:persp3d-origin="30 : 20 : 1"
       id="perspective51" />
    <linearGradient
       id="linearGradient772">
      <stop
         offset="0"
         id="stop773"
         style="stop-color: #000000;stop-opacity: 1.0;" />
      <stop
         offset="1"
         id="stop774"
         style="stop-color:#ffffff;stop-opacity:1;" />
    </linearGradient>
    <linearGradient
       id="linearGradient775"
       xlink:href="#linearGradient772" />
  </defs>
  <path
     id="path1125"
     d="M 36.513370,4.3747840 C 35.995678,4.3747840 35.578904,4.7915572 35.578904,5.3092528 L 35.578904,13.951308 C 35.578904,14.469009 35.995678,14.885783 36.513370,14.885783 L 38.687123,14.885783 C 39.204824,14.885783 39.621589,14.469009 39.621589,13.951308 L 39.621589,5.3092528 C 39.621589,4.7915572 39.204824,4.3747840 38.687123,4.3747840 L 36.513370,4.3747840 z "
     style="font-size:12.000000;fill:none;fill-opacity:1.0000000;fill-rule:evenodd;stroke:#ffffff;stroke-width:7.5000000;stroke-linejoin:round;stroke-miterlimit:4.0000000;stroke-opacity:1.0000000;" />
  <path
     id="path1126"
     d="M 19.355047,13.915536 C 17.861497,13.915536 16.659109,15.117924 16.659109,16.611474 L 16.659109,52.616750 C 16.659109,54.110300 17.861497,55.312688 19.355047,55.312688 L 40.644923,55.312688 C 42.138473,55.312688 43.340861,54.110300 43.340861,52.616750 L 43.340861,16.611474 C 43.340861,15.117924 42.138473,13.915536 40.644923,13.915536 L 19.355047,13.915536 z "
     style="font-size:12.000000;fill:none;fill-opacity:1.0000000;fill-rule:evenodd;stroke:#ffffff;stroke-width:8.1250000;stroke-linejoin:round;stroke-miterlimit:4.0000000;stroke-opacity:1.0000000;" />
  <path
     id="rect900"
     transform="matrix(0.898646,0.000000,0.000000,0.898646,2.267129,1.879050)"
     d="M 38.108710,2.7772160 C 37.532630,2.7772160 37.068850,3.2409950 37.068850,3.8170790 L 37.068850,13.433830 C 37.068850,14.009920 37.532630,14.473700 38.108710,14.473700 L 40.527630,14.473700 C 41.103720,14.473700 41.567490,14.009920 41.567490,13.433830 L 41.567490,3.8170790 C 41.567490,3.2409950 41.103720,2.7772160 40.527630,2.7772160 L 38.108710,2.7772160 z "
     style="font-size:12.000000;fill:#000000;fill-opacity:1.0000000;fill-rule:evenodd;stroke:#000000;stroke-width:2.7819631;stroke-linejoin:round;stroke-opacity:1.0000000;" />
  <path
     id="rect899"
     transform="matrix(0.898646,0.000000,0.000000,0.898646,2.105420,4.951497)"
     d="M 19.195130,9.9750500 C 17.533130,9.9750500 16.195130,11.313050 16.195130,12.975050 L 16.195130,53.041190 C 16.195130,54.703190 17.533130,56.041190 19.195130,56.041190 L 42.886190,56.041190 C 44.548190,56.041190 45.886190,54.703190 45.886190,53.041190 L 45.886190,12.975050 C 45.886190,11.313050 44.548190,9.9750500 42.886190,9.9750500 L 19.195130,9.9750500 z "
     style="stroke-opacity:1;stroke-linejoin:round;stroke-width:3.47745319999999980;stroke:#000000;fill-rule:evenodd;fill-opacity:1;fill:#ffffff;font-size:12" />
  <g
     transform="matrix(1.000000,0.000000,0.000000,1.039914,-0.660716,-2.330173)"
     id="g1126">
    <path
       id="rect901"
       d="M 23.520355,19.892672 C 22.457997,19.892672 21.602749,20.747920 21.602749,21.810278 L 21.602749,32.467794 C 21.602749,33.530143 22.457997,34.385400 23.520355,34.385400 L 37.801047,34.385400 C 38.863404,34.385400 39.718652,33.530143 39.718652,32.467794 L 39.718652,21.810278 C 39.718652,20.747920 38.863404,19.892672 37.801047,19.892672 L 23.520355,19.892672 z "
       style="font-size:12.000000;fill-rule:evenodd;stroke:#000000;stroke-width:1.8386649;stroke-linejoin:round;stroke-opacity:1.0000000" />
    <g
       id="g1587"
       transform="matrix(0.881281,0.000000,0.000000,0.881281,4.123911,4.868664)"
       style="font-size:12.000000">
      <path
         transform="matrix(0.843533,0.000000,0.000000,0.843533,2.791160,5.763706)"
         d="M 20.322410,36.587670 C 19.919480,36.587670 19.595100,36.912050 19.595100,37.314970 L 19.595100,39.550340 C 19.595100,39.953270 19.919480,40.277650 20.322410,40.277650 L 25.738800,40.277650 C 26.141740,40.277650 26.466110,39.953270 26.466110,39.550340 L 26.466110,37.314970 C 26.466110,36.912050 26.141740,36.587670 25.738800,36.587670 L 20.322410,36.587670 z "
         style="fill:#000000;fill-opacity:1.0000000;fill-rule:evenodd;stroke-width:1.0000000"
         id="rect902" />
      <path
         transform="matrix(0.843533,0.000000,0.000000,0.843533,1.717841,5.763706)"
         d="M 30.952340,36.587670 C 30.549410,36.587670 30.225020,36.912050 30.225020,37.314970 L 30.225020,39.550340 C 30.225020,39.953270 30.549410,40.277650 30.952340,40.277650 L 36.368730,40.277650 C 36.771660,40.277650 37.096040,39.953270 37.096040,39.550340 L 37.096040,37.314970 C 37.096040,36.912050 36.771660,36.587670 36.368730,36.587670 L 30.952340,36.587670 z "
         style="fill:#000000;fill-opacity:1.0000000;fill-rule:evenodd;stroke-width:1.0000000"
         id="rect903" />
      <path
         transform="matrix(0.843533,0.000000,0.000000,0.843533,0.644521,5.763706)"
         d="M 41.582260,36.587670 C 41.179330,36.587670 40.854950,36.912050 40.854950,37.314970 L 40.854950,39.550340 C 40.854950,39.953270 41.179330,40.277650 41.582260,40.277650 L 46.998650,40.277650 C 47.401580,40.277650 47.725960,39.953270 47.725960,39.550340 L 47.725960,37.314970 C 47.725960,36.912050 47.401580,36.587670 46.998650,36.587670 L 41.582260,36.587670 z "
         style="fill:#000000;fill-opacity:1.0000000;fill-rule:evenodd;stroke-width:1.0000000"
         id="rect904" />
      <path
         id="rect905"
         d="M 19.933790,41.230260 C 19.593900,41.230260 19.320280,41.503880 19.320280,41.843770 L 19.320280,43.729380 C 19.320280,44.069260 19.593900,44.342890 19.933790,44.342890 L 24.502690,44.342890 C 24.842580,44.342890 25.116200,44.069260 25.116200,43.729380 L 25.116200,41.843770 C 25.116200,41.503880 24.842580,41.230260 24.502690,41.230260 L 19.933790,41.230260 z "
         style="fill:#000000;fill-opacity:1.0000000;fill-rule:evenodd;stroke-width:1.0000000" />
      <path
         id="rect906"
         d="M 27.827160,41.230260 C 27.487270,41.230260 27.213650,41.503880 27.213650,41.843770 L 27.213650,43.729380 C 27.213650,44.069260 27.487270,44.342890 27.827160,44.342890 L 32.396060,44.342890 C 32.735950,44.342890 33.009570,44.069260 33.009570,43.729380 L 33.009570,41.843770 C 33.009570,41.503880 32.735950,41.230260 32.396060,41.230260 L 27.827160,41.230260 z "
         style="fill:#000000;fill-opacity:1.0000000;fill-rule:evenodd;stroke-width:1.0000000" />
      <path
         id="rect907"
         d="M 35.720530,41.230260 C 35.380640,41.230260 35.107020,41.503880 35.107020,41.843770 L 35.107020,43.729380 C 35.107020,44.069260 35.380640,44.342890 35.720530,44.342890 L 40.289430,44.342890 C 40.629320,44.342890 40.902940,44.069260 40.902940,43.729380 L 40.902940,41.843770 C 40.902940,41.503880 40.629320,41.230260 40.289430,41.230260 L 35.720530,41.230260 z "
         style="fill:#000000;fill-opacity:1.0000000;fill-rule:evenodd;stroke-width:1.0000000" />
      <path
         id="rect908"
         d="M 19.933790,45.833910 C 19.593900,45.833910 19.320280,46.107530 19.320280,46.447420 L 19.320280,48.333020 C 19.320280,48.672910 19.593900,48.946530 19.933790,48.946530 L 24.502690,48.946530 C 24.842580,48.946530 25.116200,48.672910 25.116200,48.333020 L 25.116200,46.447420 C 25.116200,46.107530 24.842580,45.833910 24.502690,45.833910 L 19.933790,45.833910 z "
         style="fill:#000000;fill-opacity:1.0000000;fill-rule:evenodd;stroke-width:1.0000000" />
      <path
         id="rect909"
         d="M 27.827160,45.833910 C 27.487270,45.833910 27.213650,46.107530 27.213650,46.447420 L 27.213650,48.333020 C 27.213650,48.672910 27.487270,48.946530 27.827160,48.946530 L 32.396060,48.946530 C 32.735950,48.946530 33.009570,48.672910 33.009570,48.333020 L 33.009570,46.447420 C 33.009570,46.107530 32.735950,45.833910 32.396060,45.833910 L 27.827160,45.833910 z "
         style="fill:#000000;fill-opacity:1.0000000;fill-rule:evenodd;stroke-width:1.0000000" />
      <path
         id="rect910"
         d="M 35.720530,45.833910 C 35.380640,45.833910 35.107020,46.107530 35.107020,46.447420 L 35.107020,48.333020 C 35.107020,48.672910 35.380640,48.946530 35.720530,48.946530 L 40.289430,48.946530 C 40.629320,48.946530 40.902940,48.672910 40.902940,48.333020 L 40.902940,46.447420 C 40.902940,46.107530 40.629320,45.833910 40.289430,45.833910 L 35.720530,45.833910 z "
         style="fill:#000000;fill-opacity:1.0000000;fill-rule:evenodd;stroke-width:1.0000000" />
      <path
         transform="translate(-0.304274,3.053782)"
         d="M 20.238060,47.383770 C 19.898180,47.383770 19.624550,47.657400 19.624550,47.997280 L 19.624550,49.882890 C 19.624550,50.222770 19.898180,50.496400 20.238060,50.496400 L 24.806970,50.496400 C 25.146850,50.496400 25.420480,50.222770 25.420480,49.882890 L 25.420480,47.997280 C 25.420480,47.657400 25.146850,47.383770 24.806970,47.383770 L 20.238060,47.383770 z "
         style="fill:#000000;fill-opacity:1.0000000;fill-rule:evenodd;stroke-width:1.0000000"
         id="rect911" />
      <path
         id="rect912"
         d="M 27.827160,50.437560 C 27.487280,50.437560 27.213650,50.711180 27.213650,51.051070 L 27.213650,52.936670 C 27.213650,53.276560 27.487280,53.550180 27.827160,53.550180 L 32.396060,53.550180 C 32.735950,53.550180 33.009570,53.276560 33.009570,52.936670 L 33.009570,51.051070 C 33.009570,50.711180 32.735950,50.437560 32.396060,50.437560 L 27.827160,50.437560 z "
         style="fill:#000000;fill-opacity:1.0000000;fill-rule:evenodd;stroke-width:1.0000000" />
      <path
         id="rect913"
         d="M 35.720530,50.437560 C 35.380650,50.437560 35.107020,50.711180 35.107020,51.051070 L 35.107020,52.936670 C 35.107020,53.276560 35.380650,53.550180 35.720530,53.550180 L 40.289430,53.550180 C 40.629320,53.550180 40.902950,53.276560 40.902950,52.936670 L 40.902950,51.051070 C 40.902950,50.711180 40.629320,50.437560 40.289430,50.437560 L 35.720530,50.437560 z "
         style="fill:#000000;fill-opacity:1.0000000;fill-rule:evenodd;stroke-width:1.0000000" />
    </g>
  </g>
  <metadata
     id="metadata23">
    <RDF
       id="RDF24">
      <Work
         id="Work25"
         about="">
        <title
           id="title26">Part of the Flat Icon Collection (Thu Aug 26 14:38:01 2004)</title>
        <description
           id="description28" />
        <subject
           id="subject29">
          <Bag
             id="Bag30">
            <li
               id="li31" />
          </Bag>
        </subject>
        <publisher
           id="publisher32">
          <Agent
             id="Agent33"
             about="">
            <title
               id="title34" />
          </Agent>
        </publisher>
        <creator
           id="creator35">
          <Agent
             id="Agent36"
             about="">
            <title
               id="title37">Danny Allen</title>
          </Agent>
        </creator>
        <rights
           id="rights39">
          <Agent
             id="Agent40"
             about="">
            <title
               id="title41">Danny Allen</title>
          </Agent>
        </rights>
        <date
           id="date43" />
        <format
           id="format44">image/svg+xml</format>
        <type
           resource="http://purl.org/dc/dcmitype/StillImage"
           id="type46" />
        <license
           resource="http://creativecommons.org/licenses/LGPL/2.1/"
           id="license47">
          <date
             id="date48" />
        </license>
        <language
           id="language49">en</language>
      </Work>
    </RDF>
    <rdf:RDF>
      <cc:Work
         rdf:about="">
        <dc:format>image/svg+xml</dc:format>
        <dc:type
           rdf:resource="http://purl.org/dc/dcmitype/StillImage" />
      </cc:Work>
    </rdf:RDF>
  </metadata>
</svg>
