<?xml version="1.0" encoding="UTF-8" standalone="no"?>
<svg id="svg3669" xmlns:rdf="http://www.w3.org/1999/02/22-rdf-syntax-ns#" xmlns="http://www.w3.org/2000/svg" viewBox="0 0 128 128" height="100%" width="100%" version="1.0" xmlns:cc="http://creativecommons.org/ns#" xmlns:xlink="http://www.w3.org/1999/xlink" xmlns:dc="http://purl.org/dc/elements/1.1/">
 <defs id="defs3671">
  <linearGradient id="linearGradient7196">
   <stop id="stop7198" stop-color="#666" offset="0"/>
   <stop id="stop7200" stop-color="#666" stop-opacity="0" offset="1"/>
  </linearGradient>
  <linearGradient id="linearGradient7188">
   <stop id="stop7190" stop-color="#FFF" offset="0"/>
   <stop id="stop7192" stop-color="#FFF" stop-opacity="0" offset="1"/>
  </linearGradient>
  <linearGradient id="linearGradient7244">
   <stop id="stop7246" stop-color="#000" offset="0"/>
   <stop id="stop7248" stop-color="#000" stop-opacity="0" offset="1"/>
  </linearGradient>
  <linearGradient id="linearGradient7206">
   <stop id="stop7208" stop-color="#e7e7e7" offset="0"/>
   <stop id="stop7210" stop-color="#dbdbdb" offset="1"/>
  </linearGradient>
  <linearGradient id="linearGradient7226">
   <stop id="stop7228" stop-color="#FFF" offset="0"/>
   <stop id="stop4347" stop-color="#FFF" stop-opacity="0.60854095" offset="0.5"/>
   <stop id="stop7230" stop-color="#FFF" stop-opacity="0" offset="1"/>
  </linearGradient>
  <linearGradient id="linearGradient11778" y2="435.03" gradientUnits="userSpaceOnUse" x2="168.36" gradientTransform="matrix(0.12047435,0,0,0.16186785,81.090059,-1.5350128)" y1="723.46" x1="297.94">
   <stop id="stop7418" stop-color="#dededf" offset="0"/>
   <stop id="stop7420" stop-color="#bbbcbe" stop-opacity="0" offset="1"/>
  </linearGradient>
  <linearGradient id="linearGradient11780" y2="887.04" gradientUnits="userSpaceOnUse" x2="-11.005" gradientTransform="matrix(0.12047435,0,0,0.16186785,90.212204,-2.7020447)" y1="-0.20981" x1="-556.6">
   <stop id="stop10075" stop-color="#FFF" offset="0"/>
   <stop id="stop10077" stop-color="#FFF" offset="0.49141"/>
   <stop id="stop10079" stop-color="#b1b1b1" offset="0.51571"/>
   <stop id="stop10081" stop-color="#636363" offset="1"/>
  </linearGradient>
  <linearGradient id="linearGradient11783" y2="549.06" gradientUnits="userSpaceOnUse" x2="399.77" gradientTransform="matrix(0.12151888,0,0,0.16371644,-2.8307471,-77.98499)" y1="731.1" x1="399.77">
   <stop id="stop7424" stop-color="#cbcbcd" offset="0"/>
   <stop id="stop7426" stop-color="#e0e0e2" offset="0.5"/>
   <stop id="stop7428" stop-color="#f2f2f2" offset="1"/>
  </linearGradient>
  <linearGradient id="linearGradient12351" y2="-478.72" xlink:href="#linearGradient7196" gradientUnits="userSpaceOnUse" x2="469.28" gradientTransform="matrix(-0.249788,0,0,0.309286,240.3739,407.9597)" y1="-478.72" x1="575.58"/>
  <linearGradient id="linearGradient12353" y2="-477.72" xlink:href="#linearGradient7188" gradientUnits="userSpaceOnUse" x2="469.26" gradientTransform="matrix(-0.249788,0,0,0.309286,240.3739,407.9597)" y1="-477.72" x1="562.64"/>
  <radialGradient id="radialGradient12355" xlink:href="#linearGradient7244" gradientUnits="userSpaceOnUse" cy="-478.61" cx="1055.3" r="5.0603"/>
  <radialGradient id="radialGradient12357" fx="1055.2" fy="-476.08" xlink:href="#linearGradient7206" gradientUnits="userSpaceOnUse" cy="-478.61" cx="1055.3" r="5.0603"/>
  <radialGradient id="radialGradient12359" fx="1055.4" fy="-480.43" xlink:href="#linearGradient7226" gradientUnits="userSpaceOnUse" cy="-478.61" cx="1055.3" gradientTransform="matrix(1.905782,-0.0556753,0.02832472,1.294566,-942.3155,199.7348)" r="5.0603"/>
  <linearGradient id="linearGradient12363" y2="-478.72" xlink:href="#linearGradient7196" gradientUnits="userSpaceOnUse" x2="469.28" gradientTransform="matrix(0.4871,0,0,0.309286,-92.3347,407.9597)" y1="-478.72" x1="575.58"/>
  <linearGradient id="linearGradient12365" y2="-477.72" xlink:href="#linearGradient7188" gradientUnits="userSpaceOnUse" x2="469.26" gradientTransform="matrix(0.4871,0,0,0.309286,-92.3347,407.9597)" y1="-477.72" x1="562.64"/>
 </defs>
 <metadata id="metadata3675">
  <rdf:RDF>
   <cc:Work rdf:about="">
    <dc:format>image/svg+xml</dc:format>
    <dc:type rdf:resource="http://purl.org/dc/dcmitype/StillImage"/>
    <dc:title/>
   </cc:Work>
  </rdf:RDF>
 </metadata>
 <rect id="rect3466" opacity="0.1" stroke-linejoin="round" style="stroke-dasharray:none;" stroke-dashoffset="4" rx="2.0753" ry="2.2821" height="100.66" width="120.06" stroke="#000" stroke-linecap="round" stroke-miterlimit="4" y="11.985" x="5.0563" stroke-width="7.8723" fill="none"/>
 <rect id="rect3464" opacity="0.15" stroke-linejoin="round" style="stroke-dasharray:none;" stroke-dashoffset="4" rx="2.0753" ry="2.2821" height="100.66" width="120.06" stroke="#000" stroke-linecap="round" stroke-miterlimit="4" y="11.985" x="5.0563" stroke-width="5.9043" fill="none"/>
 <rect id="rect3462" opacity="0.2" stroke-linejoin="round" style="stroke-dasharray:none;" stroke-dashoffset="4" rx="2.0753" ry="2.2821" height="100.66" width="120.06" stroke="#000" stroke-linecap="round" stroke-miterlimit="4" y="11.985" x="5.0563" stroke-width="3.9362" fill="none"/>
 <rect id="rect3460" opacity="0.25" stroke-linejoin="round" style="stroke-dasharray:none;" stroke-dashoffset="4" rx="2.0753" ry="2.2821" height="100.66" width="120.06" stroke="#000" stroke-linecap="round" stroke-miterlimit="4" y="11.985" x="5.0563" stroke-width="1.9681" fill="none"/>
 <path id="path2276" d="m45.131-261.5v-2.795,2.795z" fill-opacity="0.75688076" fill-rule="nonzero" fill="#FFF"/>
 <path id="path3242" d="m-87.86-253.98v-2.795,2.795z" fill-opacity="0.75688076" fill-rule="nonzero" fill="#FFF"/>
 <path id="path2985" d="m-244.87-323.61v-2.795,2.795z" fill-opacity="0.75688076" fill-rule="nonzero" fill="#FFF"/>
 <path id="path3206" d="m-364.37-410.25v-2.79,2.79z" fill-opacity="0.75688076" fill-rule="nonzero" fill="#FFF"/>
 <path id="path3946" d="m-117.78-344.49v-2.8,2.8z" fill-opacity="0.75688076" fill-rule="nonzero" fill="#FFF"/>
 <path id="path1561" d="m-210.41-270.6v-1.527,1.527z" fill-opacity="0.75688076" fill-rule="nonzero" fill="#FFF"/>
 <rect id="rect1327" opacity="0.57787" fill-rule="nonzero" height="0" width="1" y="-327.2" x="-267.89" fill="#FFF"/>
 <rect id="rect2482" opacity="0.57787" fill-rule="nonzero" height="0" width="1" y="-354.73" x="-303.02" fill="#FFF"/>
 <path id="path2494" d="m-461.95-427.94v-2.8,2.8z" fill-opacity="0.75688076" fill-rule="nonzero" fill="#FFF"/>
 <path id="path6923" d="m52.561-97.186v-2.8,2.8z" fill-opacity="0.75688076" fill-rule="nonzero" fill="#FFF"/>
 <path id="path6925" d="m-104.44-166.83v-2.795,2.795z" fill-opacity="0.75688076" fill-rule="nonzero" fill="#FFF"/>
 <path id="path6927" d="m-223.95-253.46v-2.795,2.795z" fill-opacity="0.75688076" fill-rule="nonzero" fill="#FFF"/>
 <path id="path6933" d="m22.641-187.7v-2.795,2.795z" fill-opacity="0.75688076" fill-rule="nonzero" fill="#FFF"/>
 <path id="path6935" d="m-69.979-113.81v-1.53,1.53z" fill-opacity="0.75688076" fill-rule="nonzero" fill="#FFF"/>
 <rect id="rect6937" opacity="0.57787" fill-rule="nonzero" height="0" width="1" y="-170.41" x="-127.46" fill="#FFF"/>
 <rect id="rect6939" opacity="0.57787" fill-rule="nonzero" height="0" width="1" y="-197.93" x="-162.59" fill="#FFF"/>
 <path id="path6941" d="m-321.53-271.15v-2.795,2.795z" fill-opacity="0.75688076" fill-rule="nonzero" fill="#FFF"/>
 <path id="path7559" d="m3.0644-149.19v-2.794,2.794z" fill-opacity="0.75688076" fill-rule="nonzero" fill="#FFF"/>
 <path id="path7561" d="m-153.94-218.83v-2.795,2.795z" fill-opacity="0.75688076" fill-rule="nonzero" fill="#FFF"/>
 <path id="path7563" d="m-273.45-305.46v-2.795,2.795z" fill-opacity="0.75688076" fill-rule="nonzero" fill="#FFF"/>
 <path id="path7569" d="m-26.855-239.7v-2.7947,2.7947z" fill-opacity="0.75688076" fill-rule="nonzero" fill="#FFF"/>
 <path id="path7571" d="m-119.48-165.81v-1.527,1.527z" fill-opacity="0.75688076" fill-rule="nonzero" fill="#FFF"/>
 <rect id="rect7573" opacity="0.57787" fill-rule="nonzero" height="0" width="1" y="-222.41" x="-176.96" fill="#FFF"/>
 <rect id="rect7575" opacity="0.57787" fill-rule="nonzero" height="0" width="1" y="-249.93" x="-212.09" fill="#FFF"/>
 <path id="path7577" d="m-371.03-323.15v-2.795,2.795z" fill-opacity="0.75688076" fill-rule="nonzero" fill="#FFF"/>
 <path id="path8394" d="m-384.19-25.436v-2.8,2.8z" fill-opacity="0.75688076" fill-rule="nonzero" fill="#FFF"/>
 <path id="path8396" d="m-541.19-95.076v-2.79,2.79z" fill-opacity="0.75688076" fill-rule="nonzero" fill="#FFF"/>
 <path id="path8398" d="m-660.7-181.71v-2.795,2.795z" fill-opacity="0.75688076" fill-rule="nonzero" fill="#FFF"/>
 <path id="path8404" d="m-414.11-115.95v-2.8,2.8z" fill-opacity="0.75688076" fill-rule="nonzero" fill="#FFF"/>
 <path id="path8406" d="m-506.73-42.056v-1.53,1.53z" fill-opacity="0.75688076" fill-rule="nonzero" fill="#FFF"/>
 <rect id="rect8408" opacity="0.57787" fill-rule="nonzero" height="0" width="1" y="-98.656" x="-564.21" fill="#FFF"/>
 <rect id="rect8410" opacity="0.57787" fill-rule="nonzero" height="0" width="1" y="-126.19" x="-599.34" fill="#FFF"/>
 <path id="path8412" d="m-758.28-199.4v-2.795,2.795z" fill-opacity="0.75688076" fill-rule="nonzero" fill="#FFF"/>
 <path id="path9104" d="m-131.79,150.95v-2.8,2.8z" fill-opacity="0.75688076" fill-rule="nonzero" fill="#FFF"/>
 <path id="path9106" d="m-288.8,81.314v-2.79,2.79z" fill-opacity="0.75688076" fill-rule="nonzero" fill="#FFF"/>
 <path id="path9108" d="m-408.31-5.3161v-2.79,2.79z" fill-opacity="0.75688076" fill-rule="nonzero" fill="#FFF"/>
 <path id="path9114" d="m-161.71,60.444v-2.8,2.8z" fill-opacity="0.75688076" fill-rule="nonzero" fill="#FFF"/>
 <path id="path9116" d="m-254.34,134.33v-1.52,1.52z" fill-opacity="0.75688076" fill-rule="nonzero" fill="#FFF"/>
 <rect id="rect9118" opacity="0.57787" fill-rule="nonzero" height="0" width="1" y="77.734" x="-311.82" fill="#FFF"/>
 <rect id="rect9120" opacity="0.57787" fill-rule="nonzero" height="0" width="1" y="50.204" x="-346.95" fill="#FFF"/>
 <path id="path9122" d="m-505.89-23.006v-2.8,2.8z" fill-opacity="0.75688076" fill-rule="nonzero" fill="#FFF"/>
 <path id="path3633" d="m-232.44-82.616v-2.79,2.79z" fill-opacity="0.75688076" fill-rule="nonzero" fill="#FFF"/>
 <path id="path3635" d="m-389.45-152.25v-2.795,2.795z" fill-opacity="0.75688076" fill-rule="nonzero" fill="#FFF"/>
 <path id="path3637" d="m-508.95-238.88v-2.7947,2.7947z" fill-opacity="0.75688076" fill-rule="nonzero" fill="#FFF"/>
 <path id="path3643" d="m-262.36-173.12v-2.795,2.795z" fill-opacity="0.75688076" fill-rule="nonzero" fill="#FFF"/>
 <path id="path3645" d="m-354.99-99.226v-1.53,1.53z" fill-opacity="0.75688076" fill-rule="nonzero" fill="#FFF"/>
 <rect id="rect3647" opacity="0.57787" fill-rule="nonzero" height="0" width="1" y="-155.83" x="-412.47" fill="#FFF"/>
 <rect id="rect3649" opacity="0.57787" fill-rule="nonzero" height="0" width="1" y="-183.36" x="-447.6" fill="#FFF"/>
 <path id="path3651" d="m-606.54-256.57v-2.795,2.795z" fill-opacity="0.75688076" fill-rule="nonzero" fill="#FFF"/>
 <rect id="rect2894" fill-rule="nonzero" rx="2.0753" ry="2.2821" height="100.66" width="120.06" y="11.985" x="5.0563" fill="url(#linearGradient11783)"/>
 <rect id="rect2896" stroke-linejoin="round" style="stroke-dasharray:none;" fill-rule="nonzero" stroke-dashoffset="4" rx="2.593" ry="2.7297" height="99.785" width="119.16" stroke="url(#linearGradient11780)" stroke-linecap="round" stroke-miterlimit="4" y="12.42" x="5.5076" stroke-width="0.88786" fill="url(#linearGradient11778)"/>
 <rect id="rect2942" fill-rule="nonzero" rx="4.3965" ry="4.2906" height="67.084" width="112.04" y="39.056" x="9.0774" fill="#000"/>
 <path id="path10461" d="m-230.44-83.536v-2.79,2.79z" fill-opacity="0.75688076" fill-rule="nonzero" fill="#FFF"/>
 <path id="path10463" d="m-387.44-153.17v-2.795,2.795z" fill-opacity="0.75688076" fill-rule="nonzero" fill="#FFF"/>
 <path id="path10465" d="m-506.95-239.8v-2.7947,2.7947z" fill-opacity="0.75688076" fill-rule="nonzero" fill="#FFF"/>
 <path id="path10471" d="m-260.36-174.05v-2.795,2.795z" fill-opacity="0.75688076" fill-rule="nonzero" fill="#FFF"/>
 <path id="path10473" d="m-352.98-100.16v-1.52,1.52z" fill-opacity="0.75688076" fill-rule="nonzero" fill="#FFF"/>
 <rect id="rect10475" opacity="0.57787" fill-rule="nonzero" height="0" width="1" y="-156.75" x="-410.46" fill="#FFF"/>
 <rect id="rect10477" opacity="0.57787" fill-rule="nonzero" height="0" width="1" y="-184.28" x="-445.59" fill="#FFF"/>
 <path id="path10479" d="m-604.53-257.5v-2.795,2.795z" fill-opacity="0.75688076" fill-rule="nonzero" fill="#FFF"/>
 <g id="g2529" transform="matrix(1.0005095,0,0,0.96784865,-84.515492,-228.89334)">
  <path id="path2958" fill-rule="evenodd" fill="url(#linearGradient12363)" d="m136.25,259.74v0.31h69.28v-0.31h-69.28z"/>
  <path id="path2960" fill-rule="evenodd" fill="url(#linearGradient12365)" d="m136.25,260.05v0.31h69.28v-0.31h-69.28z"/>
  <path id="path2962" fill="url(#radialGradient12355)" transform="matrix(1.148134,0,0,1.163364,-1018.086,816.9091)" d="m1060.4-478.61c0,2.7947-2.2656,5.0603-5.0603,5.0603s-5.0603-2.2656-5.0603-5.0603,2.2656-5.0603,5.0603-5.0603,5.0603,2.2656,5.0603,5.0603z"/>
  <path id="path2964" fill="#bf0000" transform="matrix(1.010149,0,0,1.023549,-872.47,750.0335)" d="m1060.4-478.61c0,2.7947-2.2656,5.0603-5.0603,5.0603s-5.0603-2.2656-5.0603-5.0603,2.2656-5.0603,5.0603-5.0603,5.0603,2.2656,5.0603,5.0603z"/>
  <path id="path2966" opacity="0.47881356" d="m1060.4-478.61c0,2.7032-2.2656,4.8947-5.0603,4.8947s-5.0603-2.1914-5.0603-4.8947c0-2.7032,2.2656-4.8947,5.0603-4.8947s5.0603,2.1914,5.0603,4.8947z" transform="matrix(0.810526,0,0,0.710749,-661.8084,598.8607)" fill="url(#radialGradient12359)"/>
  <path id="path2968" opacity="0.47881356" d="m1060.4-478.61c0,2.7032-2.2656,4.8947-5.0603,4.8947s-5.0603-2.1914-5.0603-4.8947c0-2.7032,2.2656-4.8947,5.0603-4.8947s5.0603,2.1914,5.0603,4.8947z" transform="matrix(0.763182,0,0,0.669259,-611.8469,578.6828)" fill="url(#radialGradient12359)"/>
  <path id="path2972" fill="url(#radialGradient12355)" transform="matrix(1.148134,0,0,1.163364,-1031.559,816.9091)" d="m1060.4-478.61c0,2.7947-2.2656,5.0603-5.0603,5.0603s-5.0603-2.2656-5.0603-5.0603,2.2656-5.0603,5.0603-5.0603,5.0603,2.2656,5.0603,5.0603z"/>
  <path id="path2974" fill="url(#radialGradient12357)" transform="matrix(1.010149,0,0,1.023549,-885.9422,750.0335)" d="m1060.4-478.61c0,2.7947-2.2656,5.0603-5.0603,5.0603s-5.0603-2.2656-5.0603-5.0603,2.2656-5.0603,5.0603-5.0603,5.0603,2.2656,5.0603,5.0603z"/>
  <path id="path2976" opacity="0.47881356" d="m1060.4-478.61c0,2.7032-2.2656,4.8947-5.0603,4.8947s-5.0603-2.1914-5.0603-4.8947c0-2.7032,2.2656-4.8947,5.0603-4.8947s5.0603,2.1914,5.0603,4.8947z" transform="matrix(0.810526,0,0,0.710749,-675.2805,598.8607)" fill="url(#radialGradient12359)"/>
  <path id="path2978" opacity="0.47881356" d="m1060.4-478.61c0,2.7032-2.2656,4.8947-5.0603,4.8947s-5.0603-2.1914-5.0603-4.8947c0-2.7032,2.2656-4.8947,5.0603-4.8947s5.0603,2.1914,5.0603,4.8947z" transform="matrix(0.763182,0,0,0.669259,-625.319,578.6828)" fill="url(#radialGradient12359)"/>
  <path id="path2980" fill="url(#radialGradient12355)" transform="matrix(1.148134,0,0,1.163364,-1045.688,816.9091)" d="m1060.4-478.61c0,2.7947-2.2656,5.0603-5.0603,5.0603s-5.0603-2.2656-5.0603-5.0603,2.2656-5.0603,5.0603-5.0603,5.0603,2.2656,5.0603,5.0603z"/>
  <path id="path2982" fill="url(#radialGradient12357)" transform="matrix(1.010149,0,0,1.023549,-900.0715,750.0335)" d="m1060.4-478.61c0,2.7947-2.2656,5.0603-5.0603,5.0603s-5.0603-2.2656-5.0603-5.0603,2.2656-5.0603,5.0603-5.0603,5.0603,2.2656,5.0603,5.0603z"/>
  <path id="path2984" opacity="0.47881356" d="m1060.4-478.61c0,2.7032-2.2656,4.8947-5.0603,4.8947s-5.0603-2.1914-5.0603-4.8947c0-2.7032,2.2656-4.8947,5.0603-4.8947s5.0603,2.1914,5.0603,4.8947z" transform="matrix(0.810526,0,0,0.710749,-689.41,598.8607)" fill="url(#radialGradient12359)"/>
  <path id="path2986" opacity="0.47881356" d="m1060.4-478.61c0,2.7032-2.2656,4.8947-5.0603,4.8947s-5.0603-2.1914-5.0603-4.8947c0-2.7032,2.2656-4.8947,5.0603-4.8947s5.0603,2.1914,5.0603,4.8947z" transform="matrix(0.763182,0,0,0.669259,-639.4484,578.6828)" fill="url(#radialGradient12359)"/>
 </g>
 <g id="g2521" transform="matrix(1.0005095,0,0,0.96784865,-78.615267,-228.8934)">
  <path id="path2397" fill-rule="evenodd" fill="url(#linearGradient12351)" d="m123.15,259.74v0.31h-35.521v-0.31h35.521z"/>
  <path id="path2399" fill-rule="evenodd" fill="url(#linearGradient12353)" d="m123.15,260.05v0.31h-35.521v-0.31h35.521z"/>
  <path id="path2409" fill="url(#radialGradient12355)" transform="matrix(1.148134,0,0,1.163364,-1114.932,816.9091)" d="m1060.4-478.61c0,2.7947-2.2656,5.0603-5.0603,5.0603s-5.0603-2.2656-5.0603-5.0603,2.2656-5.0603,5.0603-5.0603,5.0603,2.2656,5.0603,5.0603z"/>
  <path id="path2411" fill="url(#radialGradient12357)" transform="matrix(1.010149,0,0,1.023549,-969.3149,750.0335)" d="m1060.4-478.61c0,2.7947-2.2656,5.0603-5.0603,5.0603s-5.0603-2.2656-5.0603-5.0603,2.2656-5.0603,5.0603-5.0603,5.0603,2.2656,5.0603,5.0603z"/>
  <path id="path2413" opacity="0.47881356" d="m1060.4-478.61c0,2.7032-2.2656,4.8947-5.0603,4.8947s-5.0603-2.1914-5.0603-4.8947c0-2.7032,2.2656-4.8947,5.0603-4.8947s5.0603,2.1914,5.0603,4.8947z" transform="matrix(0.810526,0,0,0.710749,-758.6532,598.8607)" fill="url(#radialGradient12359)"/>
  <path id="path2415" opacity="0.47881356" d="m1060.4-478.61c0,2.7032-2.2656,4.8947-5.0603,4.8947s-5.0603-2.1914-5.0603-4.8947c0-2.7032,2.2656-4.8947,5.0603-4.8947s5.0603,2.1914,5.0603,4.8947z" transform="matrix(0.763182,0,0,0.669259,-708.6917,578.6828)" fill="url(#radialGradient12359)"/>
 </g>
 <path id="path2875" d="m68.991-136.77v-2.796,2.796z" fill-opacity="0.75688076" fill-rule="nonzero" fill="#FFF"/>
 <path id="path2879" d="m-64.001-129.25v-2.8,2.8z" fill-opacity="0.75688076" fill-rule="nonzero" fill="#FFF"/>
 <path id="path2881" d="m-221.01-198.88v-2.795,2.795z" fill-opacity="0.75688076" fill-rule="nonzero" fill="#FFF"/>
 <path id="path2883" d="m-340.51-285.52v-2.794,2.794z" fill-opacity="0.75688076" fill-rule="nonzero" fill="#FFF"/>
 <path id="path2889" d="m-93.92-219.76v-2.795,2.795z" fill-opacity="0.75688076" fill-rule="nonzero" fill="#FFF"/>
 <path id="path2891" d="m-186.55-145.87v-1.526,1.526z" fill-opacity="0.75688076" fill-rule="nonzero" fill="#FFF"/>
 <rect id="rect2893" opacity="0.57787" fill-rule="nonzero" height="0" width="1" y="-202.47" x="-244.03" fill="#FFF"/>
 <rect id="rect2895" opacity="0.57787" fill-rule="nonzero" height="0" width="1" y="-229.99" x="-279.16" fill="#FFF"/>
 <path id="path2897" d="m-438.09-303.21v-2.795,2.795z" fill-opacity="0.75688076" fill-rule="nonzero" fill="#FFF"/>
 <path id="path2907" d="m77.514,30.897,0-2.71,0,2.71z" fill-opacity="0.75688076" fill-rule="nonzero" fill="#FFF"/>
 <path id="path2909" d="m-80.584-42.096v-2.79,2.79z" fill-opacity="0.75688076" fill-rule="nonzero" fill="#FFF"/>
 <path id="path2911" d="m-200.09-128.73v-2.79,2.79z" fill-opacity="0.75688076" fill-rule="nonzero" fill="#FFF"/>
 <path id="path2917" d="m46.501-62.966v-2.8,2.8z" fill-opacity="0.75688076" fill-rule="nonzero" fill="#FFF"/>
 <path id="path2919" d="m-46.119,10.924v-1.53,1.53z" fill-opacity="0.75688076" fill-rule="nonzero" fill="#FFF"/>
 <rect id="rect2921" opacity="0.57787" fill-rule="nonzero" height="0" width="1" y="-45.676" x="-103.6" fill="#FFF"/>
 <rect id="rect2923" opacity="0.57787" fill-rule="nonzero" height="0" width="1" y="-73.206" x="-138.73" fill="#FFF"/>
 <path id="path2925" d="m-297.67-146.42v-2.794,2.794z" fill-opacity="0.75688076" fill-rule="nonzero" fill="#FFF"/>
 <path id="path4109" d="m185.94-240.09v-2.6084,2.6084z" fill-opacity="0.75688076" fill-rule="nonzero" fill="#FFF"/>
 <path id="path4111" d="m61.821-233.07v-2.6084,2.6084z" fill-opacity="0.75688076" fill-rule="nonzero" fill="#FFF"/>
 <path id="path4113" d="m-84.724-298.06v-2.608,2.608z" fill-opacity="0.75688076" fill-rule="nonzero" fill="#FFF"/>
 <path id="path4115" d="m-196.26-378.92v-2.61,2.61z" fill-opacity="0.75688076" fill-rule="nonzero" fill="#FFF"/>
 <path id="path4121" d="m33.891-317.55v-2.608,2.608z" fill-opacity="0.75688076" fill-rule="nonzero" fill="#FFF"/>
 <path id="path4123" d="m-52.557-248.58v-1.425,1.425z" fill-opacity="0.75688076" fill-rule="nonzero" fill="#FFF"/>
 <rect id="rect4125" opacity="0.57787" fill-rule="nonzero" height="0" width="0.93333" y="-301.41" x="-106.21" fill="#FFF"/>
 <rect id="rect4127" opacity="0.57787" fill-rule="nonzero" height="0" width="0.93333" y="-327.1" x="-138.99" fill="#FFF"/>
 <path id="path4129" d="m-287.34-395.44v-2.61,2.61z" fill-opacity="0.75688076" fill-rule="nonzero" fill="#FFF"/>
 <path id="path4139" d="m192.88-86.736v-2.61,2.61z" fill-opacity="0.75688076" fill-rule="nonzero" fill="#FFF"/>
 <path id="path4141" d="m46.341-151.73v-2.608,2.608z" fill-opacity="0.75688076" fill-rule="nonzero" fill="#FFF"/>
 <path id="path4143" d="m-65.196-232.58v-2.6084,2.6084z" fill-opacity="0.75688076" fill-rule="nonzero" fill="#FFF"/>
 <path id="path4149" d="m164.95-171.21v-2.608,2.608z" fill-opacity="0.75688076" fill-rule="nonzero" fill="#FFF"/>
 <path id="path4151" d="m78.511-102.25v-1.42,1.42z" fill-opacity="0.75688076" fill-rule="nonzero" fill="#FFF"/>
 <rect id="rect4153" opacity="0.57787" fill-rule="nonzero" height="0" width="0.93333" y="-155.07" x="24.851" fill="#FFF"/>
 <rect id="rect4155" opacity="0.57787" fill-rule="nonzero" height="0" width="0.93333" y="-180.76" x="-7.9307" fill="#FFF"/>
 <path id="path4157" d="m-156.27-249.1v-2.609,2.609z" fill-opacity="0.75688076" fill-rule="nonzero" fill="#FFF"/>
 <path id="path4167" d="m146.68-135.27v-2.61,2.61z" fill-opacity="0.75688076" fill-rule="nonzero" fill="#FFF"/>
 <path id="path4169" d="m0.13935-200.26v-2.608,2.608z" fill-opacity="0.75688076" fill-rule="nonzero" fill="#FFF"/>
 <path id="path4171" d="m-111.4-281.12v-2.608,2.608z" fill-opacity="0.75688076" fill-rule="nonzero" fill="#FFF"/>
 <path id="path4177" d="m118.75-219.74v-2.609,2.609z" fill-opacity="0.75688076" fill-rule="nonzero" fill="#FFF"/>
 <path id="path4179" d="m32.311-150.78v-1.425,1.425z" fill-opacity="0.75688076" fill-rule="nonzero" fill="#FFF"/>
 <rect id="rect4181" opacity="0.57787" fill-rule="nonzero" height="0" width="0.93333" y="-203.6" x="-21.346" fill="#FFF"/>
 <rect id="rect4184" opacity="0.57787" fill-rule="nonzero" height="0" width="0.93333" y="-229.3" x="-54.131" fill="#FFF"/>
 <path id="path4186" d="m-202.47-297.63v-2.608,2.608z" fill-opacity="0.75688076" fill-rule="nonzero" fill="#FFF"/>
 <path id="path4196" d="m-214.75-19.766v-2.61,2.61z" fill-opacity="0.75688076" fill-rule="nonzero" fill="#FFF"/>
 <path id="path4198" d="m-361.29-84.756v-2.61,2.61z" fill-opacity="0.75688076" fill-rule="nonzero" fill="#FFF"/>
 <path id="path4200" d="m-472.83-165.62v-2.608,2.608z" fill-opacity="0.75688076" fill-rule="nonzero" fill="#FFF"/>
 <path id="path4206" d="m-242.68-104.25v-2.61,2.61z" fill-opacity="0.75688076" fill-rule="nonzero" fill="#FFF"/>
 <path id="path4208" d="m-329.13-35.276v-1.43,1.43z" fill-opacity="0.75688076" fill-rule="nonzero" fill="#FFF"/>
 <rect id="rect4210" opacity="0.57787" fill-rule="nonzero" height="0" width="0.93333" y="-88.106" x="-382.78" fill="#FFF"/>
 <rect id="rect4212" opacity="0.57787" fill-rule="nonzero" height="0" width="0.93333" y="-113.8" x="-415.57" fill="#FFF"/>
 <path id="path4214" d="m-563.91-182.13v-2.608,2.608z" fill-opacity="0.75688076" fill-rule="nonzero" fill="#FFF"/>
 <path id="path4226" d="m-125.73,79.874v-2.61,2.61z" fill-opacity="0.75688076" fill-rule="nonzero" fill="#FFF"/>
 <path id="path4228" d="m-237.26-0.9861v-2.61,2.61z" fill-opacity="0.75688076" fill-rule="nonzero" fill="#FFF"/>
 <path id="path4234" d="m-6.0603,62.681,0-2.5164,0,2.5164z" fill-opacity="0.75688076" fill-rule="nonzero" fill="#FFF"/>
 <path id="path4236" d="m-93.561,129.35v-1.42,1.42z" fill-opacity="0.75688076" fill-rule="nonzero" fill="#FFF"/>
 <rect id="rect4238" opacity="0.57787" fill-rule="nonzero" height="0" width="0.93333" y="76.534" x="-147.21" fill="#FFF"/>
 <rect id="rect4240" opacity="0.57787" fill-rule="nonzero" height="0" width="0.93333" y="50.834" x="-180" fill="#FFF"/>
 <path id="path4242" d="m-328.34-17.496v-2.61,2.61z" fill-opacity="0.75688076" fill-rule="nonzero" fill="#FFF"/>
 <path id="path4252" d="m-73.126-73.126v-2.61,2.61z" fill-opacity="0.75688076" fill-rule="nonzero" fill="#FFF"/>
 <path id="path4254" d="m-219.67-138.12v-2.608,2.608z" fill-opacity="0.75688076" fill-rule="nonzero" fill="#FFF"/>
 <path id="path4256" d="m-331.2-218.98v-2.608,2.608z" fill-opacity="0.75688076" fill-rule="nonzero" fill="#FFF"/>
 <path id="path4262" d="m-101.05-157.6v-2.609,2.609z" fill-opacity="0.75688076" fill-rule="nonzero" fill="#FFF"/>
 <path id="path4264" d="m-187.5-88.636v-1.43,1.43z" fill-opacity="0.75688076" fill-rule="nonzero" fill="#FFF"/>
 <rect id="rect4266" opacity="0.57787" fill-rule="nonzero" height="0" width="0.93333" y="-141.46" x="-241.15" fill="#FFF"/>
 <rect id="rect4268" opacity="0.57787" fill-rule="nonzero" height="0" width="0.93333" y="-167.16" x="-273.94" fill="#FFF"/>
 <path id="path4270" d="m-422.28-235.49v-2.6084,2.6084z" fill-opacity="0.75688076" fill-rule="nonzero" fill="#FFF"/>
 <path id="path4284" d="m-71.252-73.996v-2.6,2.6z" fill-opacity="0.75688076" fill-rule="nonzero" fill="#FFF"/>
 <path id="path4286" d="m-217.79-138.98v-2.608,2.608z" fill-opacity="0.75688076" fill-rule="nonzero" fill="#FFF"/>
 <path id="path4288" d="m-329.33-219.84v-2.608,2.608z" fill-opacity="0.75688076" fill-rule="nonzero" fill="#FFF"/>
 <path id="path4294" d="m-99.177-158.47v-2.609,2.609z" fill-opacity="0.75688076" fill-rule="nonzero" fill="#FFF"/>
 <path id="path4296" d="m-185.63-89.496v-1.43,1.43z" fill-opacity="0.75688076" fill-rule="nonzero" fill="#FFF"/>
 <rect id="rect4298" opacity="0.57787" fill-rule="nonzero" height="0" width="0.93333" y="-142.33" x="-239.28" fill="#FFF"/>
 <rect id="rect4300" opacity="0.57787" fill-rule="nonzero" height="0" width="0.93333" y="-168.02" x="-272.07" fill="#FFF"/>
 <path id="path4302" d="m-420.41-236.35v-2.6084,2.6084z" fill-opacity="0.75688076" fill-rule="nonzero" fill="#FFF"/>
 <path id="path4356" d="m208.21-123.68v-2.61,2.61z" fill-opacity="0.75688076" fill-rule="nonzero" fill="#FFF"/>
 <path id="path4358" d="m84.091-116.66v-2.61,2.61z" fill-opacity="0.75688076" fill-rule="nonzero" fill="#FFF"/>
 <path id="path4360" d="m-62.455-181.65v-2.608,2.608z" fill-opacity="0.75688076" fill-rule="nonzero" fill="#FFF"/>
 <path id="path4362" d="m-173.99-262.51v-2.608,2.608z" fill-opacity="0.75688076" fill-rule="nonzero" fill="#FFF"/>
 <path id="path4368" d="m56.161-201.13v-2.608,2.608z" fill-opacity="0.75688076" fill-rule="nonzero" fill="#FFF"/>
 <path id="path4370" d="m-30.288-132.17v-1.42,1.42z" fill-opacity="0.75688076" fill-rule="nonzero" fill="#FFF"/>
 <rect id="rect4372" opacity="0.57787" fill-rule="nonzero" height="0" width="0.93333" y="-184.99" x="-83.94" fill="#FFF"/>
 <rect id="rect4374" opacity="0.57787" fill-rule="nonzero" height="0" width="0.93333" y="-210.69" x="-116.72" fill="#FFF"/>
 <path id="path4376" d="m-265.07-279.02v-2.608,2.608z" fill-opacity="0.75688076" fill-rule="nonzero" fill="#FFF"/>
 <path id="path4386" d="m215.15,29.684v-2.61,2.61z" fill-opacity="0.75688076" fill-rule="nonzero" fill="#FFF"/>
 <path id="path4388" d="m69.7-29.942,0-2.5261,0,2.5261z" fill-opacity="0.75688076" fill-rule="nonzero" fill="#FFF"/>
 <path id="path4390" d="m-42.927-116.17v-2.61,2.61z" fill-opacity="0.75688076" fill-rule="nonzero" fill="#FFF"/>
 <path id="path4396" d="m187.22-54.796v-2.61,2.61z" fill-opacity="0.75688076" fill-rule="nonzero" fill="#FFF"/>
 <path id="path4398" d="m101.88,17.956,0-1.384,0,1.384z" fill-opacity="0.75688076" fill-rule="nonzero" fill="#FFF"/>
 <rect id="rect4400" opacity="0.57787" fill-rule="nonzero" height="0" width="0.93333" y="-38.656" x="47.121" fill="#FFF"/>
 <rect id="rect4402" opacity="0.57787" fill-rule="nonzero" height="0" width="0.93333" y="-64.346" x="14.338" fill="#FFF"/>
 <path id="path4404" d="m-134-132.69v-2.61,2.61z" fill-opacity="0.75688076" fill-rule="nonzero" fill="#FFF"/>
 <path id="path4414" fill-rule="nonzero" fill="#e0e00f" d="m13.096,42.837c-0.55628,0.52159,5.4778,21.525,6.2382,21.72,0.28815,0.0652,2.8515-2.1143,5.903-4.8619l9.875,9.193,5.963-5.5512-9.875-9.2023c2.9615-2.8315,5.3027-5.2159,5.2227-5.486-0.21011-0.70787-22.771-6.3243-23.327-5.812z"/>
 <path id="path4581" fill-rule="nonzero" fill="#e0e00f" d="m13.096,102.38c-0.55628-0.52159,5.4778-21.525,6.2382-21.711,0.28815-0.07452,2.8515,2.105,5.903,4.8619l9.875-9.193,5.963,5.5512-9.875,9.193c2.9615,2.8408,5.3027,5.2252,5.2227,5.486-0.21011,0.70787-22.771,6.3336-23.327,5.812z"/>
 <path id="path4583" fill-rule="nonzero" fill="#e0e00f" d="m117.07,42.837c0.56029,0.52159-5.4728,21.525-6.2332,21.72-0.29015,0.0652-2.8514-2.1143-5.903-4.8619l-9.875,9.193-5.963-5.5512,9.875-9.2023c-2.9615-2.8315-5.3027-5.2159-5.2227-5.486,0.2001-0.70787,22.772-6.3243,23.322-5.812z"/>
 <path id="path4585" fill-rule="nonzero" fill="#e0e00f" d="m117.07,102.38c0.56029-0.52159-5.4728-21.525-6.2332-21.711-0.29015-0.07452-2.8514,2.105-5.903,4.8619l-9.875-9.193-5.963,5.5512,9.875,9.193c-2.9615,2.8408-5.3027,5.2252-5.2227,5.486,0.2001,0.70787,22.772,6.3336,23.322,5.812z"/>
</svg>