<?xml version="1.0" encoding="UTF-8" standalone="no"?>
<!-- Created with Inkscape (http://www.inkscape.org/) -->

<svg
   xmlns:dc="http://purl.org/dc/elements/1.1/"
   xmlns:cc="http://creativecommons.org/ns#"
   xmlns:rdf="http://www.w3.org/1999/02/22-rdf-syntax-ns#"
   xmlns:svg="http://www.w3.org/2000/svg"
   xmlns="http://www.w3.org/2000/svg"
   xmlns:sodipodi="http://sodipodi.sourceforge.net/DTD/sodipodi-0.dtd"
   xmlns:inkscape="http://www.inkscape.org/namespaces/inkscape"
   width="64"
   height="64"
   id="svg2"
   version="1.1"
   inkscape:version="0.47 r22583"
   sodipodi:docname="lximedia.svg"
   inkscape:export-filename="/data/Development/lximedia/lximedia.png"
   inkscape:export-xdpi="180"
   inkscape:export-ydpi="180">
  <defs
     id="defs4">
    <inkscape:perspective
       sodipodi:type="inkscape:persp3d"
       inkscape:vp_x="0 : 526.18109 : 1"
       inkscape:vp_y="0 : 1000 : 0"
       inkscape:vp_z="744.09448 : 526.18109 : 1"
       inkscape:persp3d-origin="372.04724 : 350.78739 : 1"
       id="perspective10" />
    <inkscape:perspective
       id="perspective2832"
       inkscape:persp3d-origin="0.5 : 0.33333333 : 1"
       inkscape:vp_z="1 : 0.5 : 1"
       inkscape:vp_y="0 : 1000 : 0"
       inkscape:vp_x="0 : 0.5 : 1"
       sodipodi:type="inkscape:persp3d" />
    <inkscape:perspective
       id="perspective3628"
       inkscape:persp3d-origin="0.5 : 0.33333333 : 1"
       inkscape:vp_z="1 : 0.5 : 1"
       inkscape:vp_y="0 : 1000 : 0"
       inkscape:vp_x="0 : 0.5 : 1"
       sodipodi:type="inkscape:persp3d" />
    <inkscape:perspective
       id="perspective3628-8"
       inkscape:persp3d-origin="0.5 : 0.33333333 : 1"
       inkscape:vp_z="1 : 0.5 : 1"
       inkscape:vp_y="0 : 1000 : 0"
       inkscape:vp_x="0 : 0.5 : 1"
       sodipodi:type="inkscape:persp3d" />
  </defs>
  <sodipodi:namedview
     id="base"
     pagecolor="#ffffff"
     bordercolor="#666666"
     borderopacity="1.0"
     inkscape:pageopacity="0"
     inkscape:pageshadow="2"
     inkscape:zoom="8"
     inkscape:cx="10.863866"
     inkscape:cy="31.707568"
     inkscape:document-units="px"
     inkscape:current-layer="layer1"
     showgrid="false"
     inkscape:window-width="1680"
     inkscape:window-height="1030"
     inkscape:window-x="1276"
     inkscape:window-y="-3"
     inkscape:window-maximized="1" />
  <metadata
     id="metadata7">
    <rdf:RDF>
      <cc:Work
         rdf:about="">
        <dc:format>image/svg+xml</dc:format>
        <dc:type
           rdf:resource="http://purl.org/dc/dcmitype/StillImage" />
        <dc:title></dc:title>
      </cc:Work>
    </rdf:RDF>
  </metadata>
  <g
     inkscape:label="Layer 1"
     inkscape:groupmode="layer"
     id="layer1"
     transform="translate(0,-988.36214)">
    <path
       sodipodi:type="arc"
       style="fill:#40b040;fill-opacity:1;stroke:#ffffff;stroke-width:1;stroke-linecap:butt;stroke-linejoin:miter;stroke-miterlimit:4;stroke-opacity:1;stroke-dasharray:none;stroke-dashoffset:0.45"
       id="path2838"
       sodipodi:cx="29.610096"
       sodipodi:cy="19.427019"
       sodipodi:rx="9.7858524"
       sodipodi:ry="7.9549513"
       d="m 39.395948,19.427019 a 9.7858524,7.9549513 0 1 1 -19.571704,0 9.7858524,7.9549513 0 1 1 19.571704,0 z"
       transform="matrix(3.0945695,0,0,3.2156571,-59.640156,957.18618)" />
    <g
       transform="scale(1.0001791,0.99982093)"
       style="font-size:39.91489029px;font-style:normal;font-weight:normal;fill:#000000;fill-opacity:1;stroke:none;font-family:Bitstream Vera Sans"
       id="text2816">
      <path
         style="font-size:21.95318985px;font-style:italic;fill:#ffffff"
         d="m 5.71875,17.40625 0,3.96875 5.03125,0 0,16.40625 0.40625,0 20.078125,0 0.25,0 0.265625,0 0.25,0 4.75,-6.96875 4.75,6.96875 0.296875,0 0.3125,0 0.34375,0 0.375,0 9.234375,0 2.34375,-12.03125 -3.84375,0 -1.5625,8.0625 -4.71875,0 -4.375,-6.4375 6.78125,-9.96875 -5.5,0 -4.4375,6.5625 -4.46875,-6.5625 -5.5,0 6.8125,9.96875 -4.375,6.4375 -0.296875,0 -12.921875,0 0,-15.875 0,-0.53125 -0.5625,0 -9.71875,0 z m 45.75,3.6875 -0.625,3.125 0.3125,0 0.25,0 8.09375,0 -1.34375,-3.125 -6.140625,0 -0.265625,0 -0.28125,0 z"
         transform="matrix(0.99982093,0,0,1.0001791,0,988.53916)"
         id="path3670"
         sodipodi:nodetypes="ccccccccccccccccccccccccccccccccccccccccccc" />
    </g>
    <path
       style="font-size:39.91489029000000244px;font-style:normal;font-weight:normal;fill:#ffffff;fill-opacity:1;stroke:none;font-family:Bitstream Vera Sans"
       d="M 37.15625 41.46875 L 37.15625 45 C 36.867746 44.618076 36.538372 44.335529 36.1875 44.15625 C 35.840517 43.973086 35.452238 43.875007 35 43.875 C 34.19298 43.875007 33.518517 44.200712 33 44.84375 C 32.481481 45.482903 32.218749 46.303119 32.21875 47.3125 C 32.218749 48.321888 32.481481 49.138207 33 49.78125 C 33.518517 50.420398 34.19298 50.75 35 50.75 C 35.456137 50.75 35.840517 50.648023 36.1875 50.46875 C 36.534474 50.289477 36.867746 50.010827 37.15625 49.625 L 37.15625 50.59375 L 39.25 50.59375 L 39.25 41.46875 L 37.15625 41.46875 z M 41.28125 41.46875 L 41.28125 43.1875 L 43.375 43.1875 L 43.375 41.46875 L 41.28125 41.46875 z M 12.75 41.84375 L 12.75 50.59375 L 14.875 50.59375 L 14.875 44.1875 L 16.875 48.90625 L 18.3125 48.90625 L 20.3125 44.1875 L 20.3125 50.59375 L 22.46875 50.59375 L 22.46875 41.84375 L 19.59375 41.84375 L 17.59375 46.53125 L 15.59375 41.84375 L 12.75 41.84375 z M 27.71875 43.875 C 26.588142 43.875007 25.709672 44.16939 25.0625 44.78125 C 24.419224 45.393122 24.093749 46.24466 24.09375 47.3125 C 24.093749 48.399832 24.407528 49.239679 25.0625 49.84375 C 25.721367 50.443925 26.658561 50.75 27.84375 50.75 C 28.338872 50.75 28.817368 50.691181 29.3125 50.59375 C 29.807621 50.500216 30.317366 50.374568 30.8125 50.1875 L 30.8125 48.5625 C 30.325164 48.827514 29.838931 49.023745 29.375 49.15625 C 28.914956 49.28486 28.471791 49.343751 28.03125 49.34375 C 27.485437 49.343751 27.05409 49.245528 26.75 49 C 26.445903 48.754476 26.26943 48.366055 26.21875 47.875 L 31.125 47.875 L 31.125 47.28125 C 31.124992 46.244588 30.807376 45.432166 30.1875 44.8125 C 29.571509 44.192845 28.747985 43.875007 27.71875 43.875 z M 48.1875 43.875 C 47.735255 43.875007 47.295989 43.910298 46.84375 43.96875 C 46.391506 44.023318 45.917092 44.109634 45.46875 44.21875 L 45.46875 45.8125 C 45.800133 45.633232 46.176533 45.495892 46.5625 45.40625 C 46.948462 45.316619 47.364154 45.281255 47.8125 45.28125 C 48.366102 45.281255 48.770037 45.344116 49.03125 45.5 C 49.292454 45.651997 49.406245 45.887489 49.40625 46.21875 L 49.40625 46.375 L 48.1875 46.375 C 47.056893 46.375004 46.217713 46.578958 45.6875 46.9375 C 45.161183 47.296049 44.906249 47.857246 44.90625 48.625 C 44.906249 49.256354 45.110197 49.758732 45.53125 50.15625 C 45.9562 50.549871 46.509135 50.75 47.1875 50.75 C 47.690421 50.75 48.117869 50.648023 48.46875 50.46875 C 48.819623 50.28558 49.125543 50.022519 49.40625 49.625 L 49.40625 50.59375 L 51.53125 50.59375 L 51.53125 46.84375 C 51.531243 45.795397 51.276309 45.026277 50.75 44.5625 C 50.227577 44.094838 49.368782 43.875007 48.1875 43.875 z M 41.28125 44.03125 L 41.28125 50.59375 L 43.375 50.59375 L 43.375 44.03125 L 41.28125 44.03125 z M 27.71875 45.28125 C 28.093015 45.281255 28.394976 45.379479 28.625 45.625 C 28.858913 45.866634 28.968745 46.196236 28.96875 46.59375 L 26.25 46.59375 C 26.312375 46.165058 26.465336 45.851045 26.71875 45.625 C 26.972158 45.395068 27.313288 45.281255 27.71875 45.28125 z M 35.78125 45.40625 C 36.229589 45.406255 36.547327 45.547637 36.78125 45.875 C 37.019061 46.202373 37.156245 46.688945 37.15625 47.3125 C 37.156245 47.936061 37.019061 48.422634 36.78125 48.75 C 36.547327 49.07737 36.229589 49.218751 35.78125 49.21875 C 35.336802 49.218751 34.987814 49.07737 34.75 48.75 C 34.516079 48.422634 34.406247 47.936061 34.40625 47.3125 C 34.406247 46.688945 34.516079 46.202373 34.75 45.875 C 34.987814 45.547637 35.336802 45.406255 35.78125 45.40625 z M 48.34375 47.625 L 49.40625 47.625 L 49.40625 47.875 C 49.406245 48.299802 49.269001 48.653003 49 48.9375 C 48.73099 49.218103 48.425008 49.343751 48.03125 49.34375 C 47.715457 49.343751 47.460584 49.273096 47.28125 49.125 C 47.105809 48.973009 46.999997 48.765014 47 48.5 C 46.999997 48.211607 47.125424 47.991848 47.34375 47.84375 C 47.565969 47.695658 47.907099 47.625003 48.34375 47.625 z "
       transform="translate(0,988.36214)"
       id="text3653" />
  </g>
</svg>
