<?xml version="1.0" encoding="UTF-8" standalone="no"?>
<!DOCTYPE svg PUBLIC "-//W3C//DTD SVG 20010904//EN"
"http://www.w3.org/TR/2001/REC-SVG-20010904/DTD/svg10.dtd">
<svg
   height="60"
   width="60"
   _SVGFile__filename="oldscale/apps/wallpaper.svg"
   version="1.0"
   y="0"
   x="0"
   id="svg1"
   sodipodi:version="0.32"
   inkscape:version="0.40"
   sodipodi:docname="background.svg"
   sodipodi:docbase="/home/danny/work/flat/SVG/mono/scalable/apps"
   xmlns="http://www.w3.org/2000/svg"
   xmlns:cc="http://web.resource.org/cc/"
   xmlns:inkscape="http://www.inkscape.org/namespaces/inkscape"
   xmlns:sodipodi="http://sodipodi.sourceforge.net/DTD/sodipodi-0.dtd"
   xmlns:rdf="http://www.w3.org/1999/02/22-rdf-syntax-ns#"
   xmlns:dc="http://purl.org/dc/elements/1.1/"
   xmlns:xlink="http://www.w3.org/1999/xlink">
  <sodipodi:namedview
     id="base"
     pagecolor="#ffffff"
     bordercolor="#666666"
     borderopacity="1.0"
     inkscape:pageopacity="0.0"
     inkscape:pageshadow="2"
     inkscape:zoom="11.381062"
     inkscape:cx="28.120650"
     inkscape:cy="22.218988"
     inkscape:window-width="1024"
     inkscape:window-height="698"
     inkscape:window-x="0"
     inkscape:window-y="0"
     inkscape:current-layer="svg1" />
  <defs
     id="defs3" />
  <metadata
     id="metadata17">
    <RDF
       id="RDF18">
      <Work
         about=""
         id="Work19">
        <title
           id="title20">Part of the Flat Icon Collection (Thu Aug 26 14:31:40 2004)</title>
        <description
           id="description22" />
        <subject
           id="subject23">
          <Bag
             id="Bag24">
            <li
               id="li25" />
          </Bag>
        </subject>
        <publisher
           id="publisher26">
          <Agent
             about=""
             id="Agent27">
            <title
               id="title28" />
          </Agent>
        </publisher>
        <creator
           id="creator29">
          <Agent
             about=""
             id="Agent30">
            <title
               id="title31">Danny Allen</title>
          </Agent>
        </creator>
        <rights
           id="rights33">
          <Agent
             about=""
             id="Agent34">
            <title
               id="title35">Danny Allen</title>
          </Agent>
        </rights>
        <date
           id="date37" />
        <format
           id="format38">image/svg+xml</format>
        <type
           id="type40"
           resource="http://purl.org/dc/dcmitype/StillImage" />
        <license
           id="license41"
           resource="http://creativecommons.org/licenses/LGPL/2.1/">
          <date
             id="date42" />
        </license>
        <language
           id="language43">en</language>
      </Work>
    </RDF>
    <rdf:RDF
       id="RDF47">
      <cc:Work
         rdf:about=""
         id="Work48">
        <dc:format
           id="format49">image/svg+xml</dc:format>
        <dc:type
           id="type51"
           rdf:resource="http://purl.org/dc/dcmitype/StillImage" />
      </cc:Work>
    </rdf:RDF>
  </metadata>
  <path
     style="font-size:12.000000;fill:none;fill-opacity:1.0000000;fill-rule:evenodd;stroke:#ffffff;stroke-width:8.1250000;stroke-linecap:round;stroke-linejoin:round;stroke-miterlimit:4.0000000;stroke-opacity:1.0000000;"
     d="M 6.5937500,4.6875000 C 5.5416230,4.6875002 4.6875000,5.6723901 4.6875000,6.9062500 L 4.6875000,43.968750 C 4.6875000,45.202609 5.5416240,46.218750 6.5937500,46.218750 L 18.468750,46.218750 C 13.818581,48.332930 10.152383,51.913911 7.8125000,55.312500 L 52.187500,55.312500 C 50.032300,51.984439 46.723313,48.350664 42.187500,46.218750 L 53.406250,46.218750 C 54.458377,46.218749 55.312500,45.202610 55.312500,43.968750 L 55.312500,6.9062500 C 55.312500,5.6723900 54.458377,4.6875000 53.406250,4.6875000 L 6.5937500,4.6875000 z "
     id="path1825" />
  <path
     style="font-size:12.000000;fill:#ffffff;fill-opacity:1.0000000;fill-rule:evenodd;stroke:#000000;stroke-width:3.3004293;stroke-linecap:round;stroke-linejoin:round;stroke-miterlimit:4.0000000;stroke-opacity:1.0000000;"
     d="M 27.270190,45.365380 C 17.601830,44.710460 10.627900,51.292380 6.7701870,56.927880 L 53.520190,56.927880 C 50.025140,51.499690 43.995000,44.871930 34.082690,45.365380 C 32.028730,45.365380 30.094380,45.203060 27.270190,45.365380 z "
     transform="matrix(0.949573,0.000000,0.000000,0.944127,1.374943,1.565851)"
     id="path859" />
  <path
     style="font-size:12.000000;fill:#ffffff;fill-opacity:1.0000000;fill-rule:evenodd;stroke:#000000;stroke-width:3.0389431;stroke-linecap:round;stroke-linejoin:round;stroke-opacity:1.0000000;"
     d="M 5.3082640,2.8688180 C 4.2002650,2.8688180 3.3082640,3.7608180 3.3082640,4.8688180 L 3.3082640,38.150410 C 3.3082640,39.258410 4.2002650,40.150410 5.3082640,40.150410 L 54.622220,40.150410 C 55.730220,40.150410 56.622220,39.258410 56.622220,38.150410 L 56.622220,4.8688180 C 56.622220,3.7608180 55.730220,2.8688180 54.622220,2.8688180 L 5.3082640,2.8688180 z "
     transform="matrix(0.949573,0.000000,0.000000,1.113592,1.545815,1.492292)"
     id="rect627" />
  <path
     id="rect628"
     style="font-size:12.000000;fill:#ffffff;fill-opacity:1.0000000;fill-rule:evenodd;stroke-width:1.8750000;stroke-linecap:round;stroke-linejoin:round;"
     d="M 8.4506080,7.2204560 L 8.4506080,42.776860 L 51.559680,42.776860 L 51.559680,7.2204560 L 8.4506080,7.2204560 z "
     transform="matrix(0.949573,0.000000,0.000000,0.944127,1.507925,1.843318)" />
  <g
     id="g1732"
     transform="matrix(0.969900,0.000000,0.000000,0.969900,1.118850,0.714670)">
    <path
       style="font-size:12.000000;fill:#ffffff;fill-opacity:1.0000000;fill-rule:evenodd;stroke:#000000;stroke-width:2.7222843;stroke-linecap:round;stroke-linejoin:round;stroke-miterlimit:4.0000000;stroke-opacity:1.0000000"
       d="M 47.466350,36.630710 C 46.292550,32.980820 44.383900,29.451570 41.260530,27.512920 C 38.116020,27.376200 34.156820,27.512920 30.328720,27.512920 C 26.938660,29.317310 24.879710,32.901690 23.597790,36.630710"
       id="path966"
       transform="matrix(0.949573,0.000000,0.000000,0.944127,1.507925,2.415008)" />
    <path
       style="font-size:12.000000;fill:#ffffff;fill-opacity:1.0000000;fill-rule:evenodd;stroke:#000000;stroke-width:3.4567943;stroke-linecap:round;stroke-linejoin:round;stroke-miterlimit:4.0000000;stroke-opacity:1.0000000"
       d="M 31.850420,22.301340 C 31.850420,29.105450 26.328240,34.627630 19.524130,34.627630 C 12.720010,34.627630 7.1978350,29.105450 7.1978350,22.301340 C 7.1978350,15.497230 12.720010,9.9750510 19.524130,9.9750510 C 26.328240,9.9750510 31.850420,15.497230 31.850420,22.301340 z "
       transform="matrix(0.747805,0.000000,0.000000,0.743516,20.64798,5.094743)"
       id="path710" />
  </g>
  <rect
     style="font-size:12.000000;fill:#ffffff;fill-opacity:1.0000000;fill-rule:evenodd;stroke-width:1.2500000;stroke-linejoin:round;"
     transform="matrix(0.949573,0.000000,0.000000,0.944127,1.507925,1.843318)"
     height="7.4258184"
     width="42.774101"
     y="35.130787"
     x="8.6945171"
     id="rect831" />
  <path
     id="path847"
     style="font-size:12.000000;fill:none;fill-opacity:0.75000000;fill-rule:evenodd;stroke:#000000;stroke-width:2.6403430;stroke-linecap:round;stroke-linejoin:round;stroke-opacity:1.0000000;"
     d="M 42.625710,43.331440 L 48.351560,43.331440"
     transform="matrix(0.949573,0.000000,0.000000,0.944127,1.074674,-2.453736)" />
  <path
     id="path1574"
     style="font-size:12.000000;fill:none;fill-rule:evenodd;stroke:#000000;stroke-width:1.9802572;stroke-linecap:round;stroke-linejoin:round;stroke-opacity:1.0000000;"
     d="M 8.4506080,7.2204560 L 8.4506080,42.776860 L 51.559680,42.776860 L 51.559680,7.2204560 L 8.4506080,7.2204560 z "
     transform="matrix(0.949573,0.000000,0.000000,0.944127,1.507925,1.843318)" />
  <path
     id="rect1575"
     style="font-size:12.000000;fill:none;fill-rule:evenodd;stroke:#000000;stroke-width:1.9802585;stroke-linejoin:round;stroke-miterlimit:4.0000000;stroke-opacity:1.0000000;"
     d="M 8.6945170,35.130790 L 51.468620,35.130790 L 8.6945170,35.130790 z "
     transform="matrix(0.949573,0.000000,0.000000,0.944127,1.507925,1.843318)" />
  <path
     style="font-size:12.000000;fill:#ffffff;fill-opacity:1.0000000;fill-rule:evenodd;stroke:#000000;stroke-width:1.8750020;stroke-linecap:round;stroke-linejoin:round;stroke-miterlimit:4.0000000;stroke-dashoffset:0.0000000;stroke-opacity:1.0000000"
     d="M 14.062648,13.210930 L 14.062648,18.837562 L 19.691659,18.837562 L 19.691659,13.210930 L 14.062648,13.210930 z "
     id="path1735" />
  <path
     style="font-size:12.000000;fill:#ffffff;fill-opacity:1.0000000;fill-rule:evenodd;stroke:#000000;stroke-width:1.8750020;stroke-linecap:round;stroke-linejoin:round;stroke-miterlimit:4.0000000;stroke-dashoffset:0.0000000;stroke-opacity:1.0000000"
     d="M 14.062648,23.210930 L 14.062648,28.837562 L 19.691659,28.837562 L 19.691659,23.210930 L 14.062648,23.210930 z "
     id="path1736" />
</svg>
