<?xml version="1.0" encoding="UTF-8" standalone="no"?>
<!DOCTYPE svg PUBLIC "-//W3C//DTD SVG 20010904//EN"
"http://www.w3.org/TR/2001/REC-SVG-20010904/DTD/svg10.dtd">
<svg
   height="60"
   width="60"
   _SVGFile__filename="oldscale/filesystems/folder_grey_open.svg"
   version="1.0"
   y="0"
   x="0"
   id="svg1"
   xmlns="http://www.w3.org/2000/svg"
   xmlns:xlink="http://www.w3.org/1999/xlink"
   xmlns:sodipodi="http://sodipodi.sourceforge.net/DTD/sodipodi-0.dtd"
   xmlns:inkscape="http://www.inkscape.org/namespaces/inkscape"
   sodipodi:version="0.32"
   inkscape:version="0.40pre4"
   xmlns:rdf="http://www.w3.org/1999/02/22-rdf-syntax-ns#"
   xmlns:cc="http://web.resource.org/cc/"
   xmlns:dc="http://purl.org/dc/elements/1.1/"
   sodipodi:docname="folder_cyan_open.svg"
   sodipodi:docbase="/home/danny/work/flat/SVG/mono/scalable/filesystems">
  <sodipodi:namedview
     id="base"
     pagecolor="#ffffff"
     bordercolor="#666666"
     borderopacity="1.0"
     inkscape:pageopacity="0.0"
     inkscape:pageshadow="2"
     inkscape:zoom="6.0628775"
     inkscape:cx="44.810354"
     inkscape:cy="11.719631"
     inkscape:window-width="1024"
     inkscape:window-height="699"
     inkscape:window-x="0"
     inkscape:window-y="0"
     inkscape:current-layer="svg1" />
  <defs
     id="defs3">
    <linearGradient
       id="linearGradient900">
      <stop
         style="stop-color: #000000;stop-opacity: 1.0;"
         id="stop901"
         offset="0" />
      <stop
         style="stop-color:#ffffff;stop-opacity:1;"
         id="stop902"
         offset="1" />
    </linearGradient>
    <linearGradient
       xlink:href="#linearGradient900"
       id="linearGradient903" />
    <linearGradient
       xlink:href="#linearGradient900"
       id="linearGradient904" />
    <linearGradient
       xlink:href="#linearGradient900"
       id="linearGradient905" />
    <linearGradient
       xlink:href="#linearGradient900"
       id="linearGradient906" />
    <linearGradient
       xlink:href="#linearGradient900"
       id="linearGradient907" />
  </defs>
  <path
     style="font-size:12.000000;fill:none;fill-opacity:1.0000000;fill-rule:evenodd;stroke:#ffffff;stroke-width:8.1250000;stroke-linejoin:round;stroke-miterlimit:4.0000000;stroke-opacity:1.0000000;"
     d="M 5.6562500,8.3750000 C 5.1457100,8.3750001 4.7187500,8.8019610 4.7187500,9.3125000 L 4.6875000,50.000000 C 4.6874970,50.857408 5.3613390,51.562500 6.2187500,51.562500 C 6.2295310,51.563888 6.2390540,51.561340 6.2500000,51.562500 C 6.3040010,51.568222 6.3171090,51.625000 6.3750000,51.625000 L 42.562500,51.625000 C 43.419910,51.625000 44.347880,50.956286 44.656250,50.156250 L 55.218750,22.781250 C 55.527120,21.981206 55.076160,21.343750 54.218750,21.343750 L 43.937500,21.343750 L 43.937500,14.125000 C 43.937500,13.267582 43.263660,12.562500 42.406250,12.562500 L 28.125000,12.562500 L 28.125000,9.3125000 C 28.125000,8.8019609 27.698040,8.3750000 27.187500,8.3750000 L 5.6562500,8.3750000 z "
     id="path1103" />
  <g
     id="g1098"
     transform="translate(0.298640,-1.477342)">
    <path
       style="font-size:12.000000;fill:#ffffff;fill-opacity:1.0000000;fill-rule:evenodd;stroke:#000000;stroke-width:3.1249983;stroke-linejoin:round;stroke-opacity:1.0000000"
       d="M 5.3564493,9.8634915 C 4.8459107,9.8634915 4.4166181,10.292784 4.4166181,10.803323 L 4.3863010,51.488921 C 4.3863010,52.346328 5.0750636,53.035094 5.9324749,53.035094 L 42.100820,53.035094 C 42.958227,53.035094 43.646994,52.346328 43.646994,51.488921 L 43.646994,15.593433 C 43.646994,14.736015 42.958227,14.047258 42.100820,14.047258 L 27.821449,14.047258 L 27.821449,10.803323 C 27.821449,10.292784 27.392158,9.8634915 26.881617,9.8634915 L 5.3564493,9.8634915 z "
       id="path938" />
    <path
       style="font-size:12.000000;fill:#ffffff;fill-opacity:1.0000000;fill-rule:evenodd;stroke:#000000;stroke-width:3.1249995;stroke-linejoin:round;stroke-opacity:1.0000000"
       d="M 17.754406,22.810815 C 16.896989,22.810815 15.958477,23.454888 15.650106,24.254932 L 5.0920535,51.647074 C 4.7836870,52.447110 5.2256919,53.091192 6.0831089,53.091192 L 42.255905,53.091192 C 43.113312,53.091192 44.051829,52.447110 44.360195,51.647074 L 54.918248,24.254932 C 55.226618,23.454888 54.784609,22.810815 53.927202,22.810815 L 17.754406,22.810815 z "
       id="rect922" />
    <path
       style="font-size:12.000000;fill:#000000;fill-opacity:1.0000000;fill-rule:evenodd;stroke:#000000;stroke-width:1.2499993;stroke-linecap:round;stroke-linejoin:round;stroke-opacity:1.0000000"
       d="M 19.694953,44.490407 L 20.868512,46.698765 L 25.258337,44.390016 L 27.458905,45.594591 L 26.688238,49.551001 L 29.610557,49.524264 L 32.131314,45.464785 L 35.296344,44.390016 L 37.774822,46.598393 L 40.315340,44.390016 L 37.988759,40.734758 C 24.208432,49.840260 21.567727,35.806454 32.579183,29.935290 L 33.471137,27.827303 L 32.254968,28.329200 L 29.980233,26.350990 L 27.083728,28.116242 L 27.625731,31.440980 L 25.374744,34.151235 L 21.304749,34.782927 L 20.073698,37.664539 L 23.563788,38.668342 L 23.527921,41.303333 L 19.694953,44.490407 z "
       id="path705" />
  </g>
  <metadata
     id="metadata15">
    <RDF
       id="RDF16">
      <Work
         about=""
         id="Work17">
        <title
           id="title18">Part of the Flat Icon Collection (Thu Aug 26 14:40:13 2004)</title>
        <description
           id="description20" />
        <subject
           id="subject21">
          <Bag
             id="Bag22">
            <li
               id="li23" />
          </Bag>
        </subject>
        <publisher
           id="publisher24">
          <Agent
             about=""
             id="Agent25">
            <title
               id="title26" />
          </Agent>
        </publisher>
        <creator
           id="creator27">
          <Agent
             about=""
             id="Agent28">
            <title
               id="title29">Danny Allen</title>
          </Agent>
        </creator>
        <rights
           id="rights31">
          <Agent
             about=""
             id="Agent32">
            <title
               id="title33">Danny Allen</title>
          </Agent>
        </rights>
        <date
           id="date35" />
        <format
           id="format36">image/svg+xml</format>
        <type
           id="type38"
           resource="http://purl.org/dc/dcmitype/StillImage" />
        <license
           id="license39"
           resource="http://creativecommons.org/licenses/LGPL/2.1/">
          <date
             id="date40" />
        </license>
        <language
           id="language41">en</language>
      </Work>
    </RDF>
    <rdf:RDF
       id="RDF43">
      <cc:Work
         rdf:about=""
         id="Work44">
        <dc:format
           id="format45">image/svg+xml</dc:format>
        <dc:type
           id="type47"
           rdf:resource="http://purl.org/dc/dcmitype/StillImage" />
      </cc:Work>
    </rdf:RDF>
  </metadata>
</svg>
