<?xml version="1.0" encoding="UTF-8" standalone="no"?>
<svg
   xmlns:dc="http://purl.org/dc/elements/1.1/"
   xmlns:cc="http://creativecommons.org/ns#"
   xmlns:rdf="http://www.w3.org/1999/02/22-rdf-syntax-ns#"
   xmlns:svg="http://www.w3.org/2000/svg"
   xmlns="http://www.w3.org/2000/svg"
   xmlns:xlink="http://www.w3.org/1999/xlink"
   xmlns:sodipodi="http://sodipodi.sourceforge.net/DTD/sodipodi-0.dtd"
   xmlns:inkscape="http://www.inkscape.org/namespaces/inkscape"
   height="60"
   width="60"
   _SVGFile__filename="oldscale/mimetypes/images.svg"
   version="1.0"
   y="0"
   x="0"
   id="svg1"
   sodipodi:version="0.32"
   inkscape:version="0.48.1 r9760"
   sodipodi:docname="image-file.svg"
   inkscape:export-filename="/data/Development/lximedia/trunk/src/lximediacenter/backend/img/image-file.png"
   inkscape:export-xdpi="192"
   inkscape:export-ydpi="192">
  <sodipodi:namedview
     id="base"
     pagecolor="#ffffff"
     bordercolor="#666666"
     borderopacity="1.0"
     inkscape:pageopacity="0.0"
     inkscape:pageshadow="2"
     inkscape:zoom="3.4732669"
     inkscape:cx="68.44888"
     inkscape:cy="58.909609"
     inkscape:window-width="1024"
     inkscape:window-height="699"
     inkscape:window-x="0"
     inkscape:window-y="0"
     inkscape:current-layer="svg1"
     showgrid="false"
     inkscape:window-maximized="0" />
  <defs
     id="defs3">
    <linearGradient
       id="linearGradient900">
      <stop
         style="stop-color: #000000;stop-opacity: 1.0;"
         id="stop901"
         offset="0" />
      <stop
         style="stop-color:#ffffff;stop-opacity:1;"
         id="stop902"
         offset="1" />
    </linearGradient>
    <linearGradient
       xlink:href="#linearGradient900"
       id="linearGradient903" />
    <linearGradient
       xlink:href="#linearGradient900"
       id="linearGradient904" />
    <linearGradient
       xlink:href="#linearGradient900"
       id="linearGradient905" />
    <linearGradient
       xlink:href="#linearGradient900"
       id="linearGradient906" />
    <linearGradient
       xlink:href="#linearGradient900"
       id="linearGradient907" />
  </defs>
  <path
     style="font-size:12.000000;fill:none;fill-opacity:1.0000000;fill-rule:evenodd;stroke:#ffffff;stroke-width:8.1250000;stroke-linecap:round;stroke-linejoin:round;stroke-miterlimit:4.0000000;stroke-opacity:1.0000000;"
     d="M 6.6825975,4.6879105 C 5.5772035,4.6879105 4.6873015,5.5841475 4.6873015,6.6974115 L 4.6873015,53.302589 C 4.6873015,54.415849 5.5772035,55.312089 6.6825975,55.312089 L 53.317398,55.312089 C 54.422798,55.312089 55.312698,54.415849 55.312698,53.302589 L 55.312698,6.6974115 C 55.312698,5.5841475 54.422798,4.6879105 53.317398,4.6879105 L 6.6825975,4.6879105 z "
     id="path1097" />
  <path
     style="font-size:12;fill: #ffffff;fill-rule:evenodd;stroke-width:3.124999;stroke-linecap:round;stroke-linejoin:round;"
     fill-opacity="1.0"
     d="M 6.682599 4.687911 C 5.577205 4.687911 4.687303 5.584148 4.687303 6.697411 L 4.687303 53.30259 C 4.687303 54.41585 5.577205 55.31209 6.682599 55.31209 L 53.3174 55.31209 C 54.4228 55.31209 55.3127 54.41585 55.3127 53.30259 L 55.3127 6.697411 C 55.3127 5.584148 54.4228 4.687911 53.3174 4.687911 L 6.682599 4.687911 z "
     id="rect812" />
  <metadata
     id="metadata20">
    <RDF
       id="RDF21">
      <Work
         about=""
         id="Work22">
        <title
           id="title23">Part of the Flat Icon Collection (Thu Aug 26 14:40:35 2004)</title>
        <description
           id="description25" />
        <subject
           id="subject26">
          <Bag
             id="Bag27">
            <li
               id="li28" />
          </Bag>
        </subject>
        <publisher
           id="publisher29">
          <Agent
             about=""
             id="Agent30">
            <title
               id="title31" />
          </Agent>
        </publisher>
        <creator
           id="creator32">
          <Agent
             about=""
             id="Agent33">
            <title
               id="title34">Danny Allen</title>
          </Agent>
        </creator>
        <rights
           id="rights36">
          <Agent
             about=""
             id="Agent37">
            <title
               id="title38">Danny Allen</title>
          </Agent>
        </rights>
        <date
           id="date40" />
        <format
           id="format41">image/svg+xml</format>
        <type
           id="type43"
           resource="http://purl.org/dc/dcmitype/StillImage" />
        <license
           id="license44"
           resource="http://creativecommons.org/licenses/LGPL/2.1/">
          <date
             id="date45" />
        </license>
        <language
           id="language46">en</language>
      </Work>
    </RDF>
    <rdf:RDF>
      <cc:Work
         rdf:about="">
        <dc:format>image/svg+xml</dc:format>
        <dc:type
           rdf:resource="http://purl.org/dc/dcmitype/StillImage" />
        <dc:title></dc:title>
      </cc:Work>
    </rdf:RDF>
  </metadata>
  <path
     style="font-size:12;fill:none;fill-rule:evenodd;stroke: #000000;stroke-width:3.124999;stroke-linecap:round;stroke-linejoin:round;"
     d="M 6.682599 4.687911 C 5.577205 4.687911 4.687303 5.584148 4.687303 6.697411 L 4.687303 53.30259 C 4.687303 54.41585 5.577205 55.31209 6.682599 55.31209 L 53.3174 55.31209 C 54.4228 55.31209 55.3127 54.41585 55.3127 53.30259 L 55.3127 6.697411 C 55.3127 5.584148 54.4228 4.687911 53.3174 4.687911 L 6.682599 4.687911 z "
     stroke-opacity="1.0"
     id="path5037" />
  <path
     inkscape:connector-curvature="0"
     style="font-size:12px;fill:none;stroke:#ffffff;stroke-width:6.34621048;stroke-linecap:round;stroke-linejoin:round;stroke-miterlimit:4;stroke-opacity:1"
     d="m 35.802929,12.038336 c -0.812098,-2e-6 -1.46451,0.652413 -1.46451,1.46451 l 0,5.076969 c -1e-6,0.812096 0.652412,1.488918 1.46451,1.488918 l 2.660527,0 0,4.100629 -26.898168,0 c -0.812099,-2e-6 -1.46451,0.652412 -1.46451,1.46451 l 0,20.283465 c 0,0.812104 0.652411,1.46451 1.46451,1.46451 l 36.612752,0 c 0.812098,0 1.464511,-0.652414 1.464511,-1.46451 l 0,-20.283465 c 0,-0.812099 -0.652413,-1.46451 -1.464511,-1.46451 l -2.636118,0 0,-4.100629 2.636118,0 c 0.812097,0 1.464511,-0.67682 1.464511,-1.488918 l 0,-5.076969 c -10e-7,-0.8121 -0.652413,-1.46451 -1.464511,-1.46451 l -12.375111,0 z m -18.794546,7.639862 c -2.265094,0 -4.100628,1.835531 -4.100628,4.100628 l 8.201257,0 c 0,-2.265094 -1.835534,-4.10063 -4.100629,-4.100628 z"
     id="path1725" />
  <path
     inkscape:connector-curvature="0"
     style="font-size:12px;fill:#ffffff;fill-opacity:1;fill-rule:evenodd;stroke:#000000;stroke-width:2.44085193;stroke-opacity:1"
     d="m 45.539352,19.125077 0,6.528207 -7.087763,0 0,-6.528207"
     id="rect815" />
  <path
     inkscape:connector-curvature="0"
     style="font-size:12px;fill:#ffffff;fill-opacity:1;fill-rule:evenodd;stroke:#000000;stroke-width:2.44085193;stroke-linecap:round;stroke-linejoin:round;stroke-opacity:1"
     d="m 35.814024,12.037314 c -0.812098,0 -1.465882,0.653783 -1.465882,1.465882 l 0,5.088601 c 0,0.812098 0.653784,1.465881 1.465882,1.465881 l 12.362891,0 c 0.812097,0 1.46588,-0.653783 1.46588,-1.465881 l 0,-5.088601 c 0,-0.812099 -0.653783,-1.465882 -1.46588,-1.465882 l -12.362891,0 z"
     id="rect816" />
  <path
     inkscape:connector-curvature="0"
     style="font-size:12px;fill:#000000;fill-opacity:1;fill-rule:evenodd;stroke:#000000;stroke-width:2.44085145;stroke-linecap:round;stroke-linejoin:round;stroke-opacity:1"
     d="m 12.898329,23.78806 c 0,-2.265094 1.838344,-4.103434 4.103439,-4.103434 2.265096,0 4.103436,1.83834 4.103436,4.103434"
     id="path818" />
  <path
     inkscape:connector-curvature="0"
     style="font-size:12px;fill:#ffffff;fill-opacity:1;fill-rule:evenodd;stroke:#000000;stroke-width:2.44085193;stroke-linecap:round;stroke-linejoin:round;stroke-opacity:1"
     d="m 11.566413,24.161119 c -0.812097,0 -1.465881,0.653783 -1.465881,1.465881 l 0,20.289988 c 0,0.812098 0.653784,1.465882 1.465881,1.465882 l 36.610499,0 c 0.812098,0 1.465881,-0.653784 1.465881,-1.465882 l 0,-20.289988 c 0,-0.812098 -0.653783,-1.465881 -1.465881,-1.465881 l -36.610499,0 z"
     id="rect810" />
  <path
     inkscape:connector-curvature="0"
     style="font-size:12px;fill:#ffffff;fill-opacity:1;fill-rule:evenodd;stroke:#000000;stroke-width:1.46451163;stroke-linejoin:round;stroke-opacity:1"
     d="m 38.311686,35.771985 c 0,4.658897 -3.781137,8.440034 -8.440034,8.440034 -4.658898,0 -8.440027,-3.781137 -8.440027,-8.440034 0,-4.658897 3.781129,-8.440035 8.440027,-8.440035 4.658897,0 8.440034,3.781138 8.440034,8.440035 z"
     id="path811" />
  <path
     inkscape:connector-curvature="0"
     style="font-size:12px;fill:#000000;fill-opacity:1;fill-rule:evenodd;stroke:#000000;stroke-width:0.97634119;stroke-linejoin:round;stroke-opacity:1"
     d="m 33.88826,35.771998 c 0,2.217161 -1.799432,4.016592 -4.016583,4.016592 -2.217164,0 -4.016605,-1.799431 -4.016605,-4.016592 0,-2.217154 1.799441,-4.016594 4.016605,-4.016594 2.217151,0 4.016583,1.79944 4.016583,4.016594 z"
     id="path813" />
</svg>
