<?xml version="1.0" encoding="UTF-8" standalone="no"?>
<!-- Created with Inkscape (http://www.inkscape.org/) -->

<svg
   xmlns:dc="http://purl.org/dc/elements/1.1/"
   xmlns:cc="http://creativecommons.org/ns#"
   xmlns:rdf="http://www.w3.org/1999/02/22-rdf-syntax-ns#"
   xmlns:svg="http://www.w3.org/2000/svg"
   xmlns="http://www.w3.org/2000/svg"
   xmlns:sodipodi="http://sodipodi.sourceforge.net/DTD/sodipodi-0.dtd"
   xmlns:inkscape="http://www.inkscape.org/namespaces/inkscape"
   width="64"
   height="64"
   id="svg2"
   version="1.1"
   inkscape:version="0.48.1 r9760"
   sodipodi:docname="lximedia.svg"
   inkscape:export-filename="/data/Development/lximedia/trunk/src/lxicore/liblxicore/lximedia.png"
   inkscape:export-xdpi="180"
   inkscape:export-ydpi="180">
  <defs
     id="defs4">
    <inkscape:perspective
       sodipodi:type="inkscape:persp3d"
       inkscape:vp_x="0 : 526.18109 : 1"
       inkscape:vp_y="0 : 1000 : 0"
       inkscape:vp_z="744.09448 : 526.18109 : 1"
       inkscape:persp3d-origin="372.04724 : 350.78739 : 1"
       id="perspective10" />
    <inkscape:perspective
       id="perspective2832"
       inkscape:persp3d-origin="0.5 : 0.33333333 : 1"
       inkscape:vp_z="1 : 0.5 : 1"
       inkscape:vp_y="0 : 1000 : 0"
       inkscape:vp_x="0 : 0.5 : 1"
       sodipodi:type="inkscape:persp3d" />
    <inkscape:perspective
       id="perspective3628"
       inkscape:persp3d-origin="0.5 : 0.33333333 : 1"
       inkscape:vp_z="1 : 0.5 : 1"
       inkscape:vp_y="0 : 1000 : 0"
       inkscape:vp_x="0 : 0.5 : 1"
       sodipodi:type="inkscape:persp3d" />
    <inkscape:perspective
       id="perspective3628-8"
       inkscape:persp3d-origin="0.5 : 0.33333333 : 1"
       inkscape:vp_z="1 : 0.5 : 1"
       inkscape:vp_y="0 : 1000 : 0"
       inkscape:vp_x="0 : 0.5 : 1"
       sodipodi:type="inkscape:persp3d" />
  </defs>
  <sodipodi:namedview
     id="base"
     pagecolor="#ffffff"
     bordercolor="#666666"
     borderopacity="1.0"
     inkscape:pageopacity="0"
     inkscape:pageshadow="2"
     inkscape:zoom="8"
     inkscape:cx="28.508929"
     inkscape:cy="24.902972"
     inkscape:document-units="px"
     inkscape:current-layer="layer1"
     showgrid="false"
     inkscape:window-width="1280"
     inkscape:window-height="968"
     inkscape:window-x="-4"
     inkscape:window-y="-3"
     inkscape:window-maximized="1" />
  <metadata
     id="metadata7">
    <rdf:RDF>
      <cc:Work
         rdf:about="">
        <dc:format>image/svg+xml</dc:format>
        <dc:type
           rdf:resource="http://purl.org/dc/dcmitype/StillImage" />
        <dc:title></dc:title>
      </cc:Work>
    </rdf:RDF>
  </metadata>
  <g
     inkscape:label="Layer 1"
     inkscape:groupmode="layer"
     id="layer1"
     transform="translate(0,-988.36214)">
    <path
       sodipodi:type="arc"
       style="fill:#ffffff;fill-opacity:1;stroke:#000000;stroke-width:1.87347651;stroke-linecap:butt;stroke-linejoin:miter;stroke-miterlimit:4;stroke-opacity:1;stroke-dasharray:none;stroke-dashoffset:0.45"
       id="path2838-3"
       sodipodi:cx="29.610096"
       sodipodi:cy="19.427019"
       sodipodi:rx="9.7858524"
       sodipodi:ry="7.9549513"
       d="m 39.395948,19.427019 a 9.7858524,7.9549513 0 1 1 -19.571704,0 9.7858524,7.9549513 0 1 1 19.571704,0 z"
       transform="matrix(1.5708628,0,0,1.6323292,-27.575898,1004.6538)" />
    <path
       sodipodi:type="arc"
       style="fill:#c8e9c8;fill-opacity:1;stroke:#000000;stroke-width:0.95101261;stroke-linecap:butt;stroke-linejoin:miter;stroke-miterlimit:4;stroke-opacity:1;stroke-dasharray:none;stroke-dashoffset:0.45"
       id="path2838"
       sodipodi:cx="29.610096"
       sodipodi:cy="19.427019"
       sodipodi:rx="9.7858524"
       sodipodi:ry="7.9549513"
       d="m 39.395948,19.427019 a 9.7858524,7.9549513 0 1 1 -19.571704,0 9.7858524,7.9549513 0 1 1 19.571704,0 z"
       transform="matrix(3.0945695,0,0,3.2156571,-59.640156,954.81118)" />
    <g
       transform="matrix(1.0792171,0,0,1.0788306,-2.8269175,-78.479664)"
       style="font-size:39.91489029px;font-style:normal;font-weight:normal;fill:#000000;fill-opacity:1;stroke:#000000;stroke-width:0.4633818;stroke-linecap:round;stroke-linejoin:round;stroke-miterlimit:4;stroke-opacity:1;stroke-dasharray:none;font-family:Bitstream Vera Sans"
       id="text2816">
      <path
         style="font-size:21.95318985px;font-style:italic;fill:#000000;fill-opacity:1;stroke:#000000;stroke-width:0.4633818;stroke-linecap:round;stroke-linejoin:round;stroke-miterlimit:4;stroke-opacity:1;stroke-dasharray:none"
         d="m 5.71875,17.40625 0,3.96875 5.03125,0 0,16.40625 0.40625,0 20.078125,0 0.25,0 0.265625,0 0.25,0 4.75,-6.96875 4.75,6.96875 0.296875,0 0.3125,0 0.34375,0 0.375,0 9.234375,0 2.34375,-12.03125 -3.84375,0 -1.5625,8.0625 -4.71875,0 -4.375,-6.4375 6.78125,-9.96875 -5.5,0 -4.4375,6.5625 -4.46875,-6.5625 -5.5,0 6.8125,9.96875 -4.375,6.4375 -0.296875,0 -12.921875,0 0,-15.875 0,-0.53125 -0.5625,0 -9.71875,0 z m 45.75,3.6875 -0.625,3.125 0.3125,0 0.25,0 8.09375,0 -1.34375,-3.125 -6.140625,0 -0.265625,0 -0.28125,0 z"
         transform="matrix(0.99982093,0,0,1.0001791,0,988.53916)"
         id="path3670"
         sodipodi:nodetypes="ccccccccccccccccccccccccccccccccccccccccccc"
         inkscape:connector-curvature="0" />
    </g>
  </g>
</svg>
