<?xml version="1.0" encoding="UTF-8" standalone="no"?>
<!DOCTYPE svg PUBLIC "-//W3C//DTD SVG 20010904//EN"
"http://www.w3.org/TR/2001/REC-SVG-20010904/DTD/svg10.dtd">
<svg
   height="60"
   width="60"
   _SVGFile__filename="oldscale/devices/cam.svg"
   version="1.0"
   y="0"
   x="0"
   id="svg1"
   sodipodi:version="0.32"
   inkscape:version="0.40"
   sodipodi:docname="cam.svg"
   sodipodi:docbase="/home/danny/work/flat/SVG/mono/scalable/devices"
   xmlns="http://www.w3.org/2000/svg"
   xmlns:cc="http://web.resource.org/cc/"
   xmlns:inkscape="http://www.inkscape.org/namespaces/inkscape"
   xmlns:sodipodi="http://sodipodi.sourceforge.net/DTD/sodipodi-0.dtd"
   xmlns:rdf="http://www.w3.org/1999/02/22-rdf-syntax-ns#"
   xmlns:dc="http://purl.org/dc/elements/1.1/"
   xmlns:xlink="http://www.w3.org/1999/xlink">
  <sodipodi:namedview
     id="base"
     pagecolor="#ffffff"
     bordercolor="#666666"
     borderopacity="1.0"
     inkscape:pageopacity="0.0"
     inkscape:pageshadow="2"
     inkscape:zoom="5.2789710"
     inkscape:cx="48.369448"
     inkscape:cy="24.087121"
     inkscape:window-width="1024"
     inkscape:window-height="699"
     inkscape:window-x="0"
     inkscape:window-y="0"
     inkscape:current-layer="svg1" />
  <defs
     id="defs3">
    <linearGradient
       id="linearGradient772">
      <stop
         style="stop-color: #000000;stop-opacity: 1.0;"
         id="stop773"
         offset="0" />
      <stop
         style="stop-color:#ffffff;stop-opacity:1;"
         id="stop774"
         offset="1" />
    </linearGradient>
    <linearGradient
       xlink:href="#linearGradient772"
       id="linearGradient775" />
  </defs>
  <path
     style="font-size:12.000000;fill:none;fill-opacity:1.0000000;fill-rule:evenodd;stroke:#ffffff;stroke-width:8.1250000;stroke-linecap:round;stroke-linejoin:round;stroke-miterlimit:4.0000000;stroke-opacity:1.0000000;"
     d="M 37.593750,7.3750000 C 36.554027,7.3749960 35.718750,8.2102780 35.718750,9.2500000 L 35.718750,15.750000 C 35.718749,16.789720 36.554027,17.656250 37.593750,17.656250 L 41.000000,17.656250 L 41.000000,22.906250 L 6.5625000,22.906250 C 5.5227783,22.906248 4.6875000,23.741528 4.6875000,24.781250 L 4.6875000,50.750000 C 4.6875001,51.789730 5.5227785,52.625000 6.5625000,52.625000 L 53.437500,52.625000 C 54.477222,52.625000 55.312500,51.789720 55.312500,50.750000 L 55.312500,24.781250 C 55.312500,23.741527 54.477222,22.906250 53.437500,22.906250 L 50.062500,22.906250 L 50.062500,17.656250 L 53.437500,17.656250 C 54.477221,17.656249 55.312500,16.789723 55.312500,15.750000 L 55.312500,9.2500000 C 55.312499,8.2102750 54.477222,7.3750000 53.437500,7.3750000 L 37.593750,7.3750000 z M 13.531250,17.156250 C 10.631269,17.156250 8.2812496,19.506266 8.2812500,22.406250 L 18.781250,22.406250 C 18.781250,19.506269 16.431232,17.156248 13.531250,17.156250 z "
     id="path1725" />
  <path
     style="font-size:12.000000;fill:#ffffff;fill-opacity:1.0000000;fill-rule:evenodd;stroke:#000000;stroke-width:3.1250024;stroke-opacity:1.0000000;"
     d="M 48.621212,18.159575 L 48.621212,26.517582 L 39.546808,26.517582 L 39.546808,18.159575"
     id="rect815"
     transform="translate(1.437998,-1.711480)" />
  <path
     style="font-size:12.000000;fill:#ffffff;fill-opacity:1.0000000;fill-rule:evenodd;stroke:#000000;stroke-width:3.1250024;stroke-linecap:round;stroke-linejoin:round;stroke-opacity:1.0000000;"
     d="M 36.169956,9.0851717 C 35.130233,9.0851717 34.293200,9.9222047 34.293200,10.961927 L 34.293200,17.476820 C 34.293200,18.516543 35.130233,19.353576 36.169956,19.353576 L 51.998061,19.353576 C 53.037783,19.353576 53.874816,18.516543 53.874816,17.476820 L 53.874816,10.961927 C 53.874816,9.9222047 53.037783,9.0851717 51.998061,9.0851717 L 36.169956,9.0851717 z "
     id="rect816"
     transform="translate(1.437998,-1.711480)" />
  <path
     style="font-size:12.000000;fill:#000000;fill-opacity:1.0000000;fill-rule:evenodd;stroke:#000000;stroke-width:3.1250014;stroke-linecap:round;stroke-linejoin:round;stroke-opacity:1.0000000;"
     d="M 6.8311847,24.129553 C 6.8311847,21.229572 9.1848016,18.875960 12.084783,18.875960 C 14.984765,18.875960 17.338377,21.229572 17.338377,24.129553"
     id="path818"
     transform="translate(1.437998,-1.711480)" />
  <path
     style="font-size:12.000000;fill:#ffffff;fill-opacity:1.0000000;fill-rule:evenodd;stroke:#000000;stroke-width:3.1250024;stroke-linecap:round;stroke-linejoin:round;stroke-opacity:1.0000000;"
     d="M 5.1259437,24.607177 C 4.0862222,24.607177 3.2491882,25.444210 3.2491882,26.483932 L 3.2491882,52.461033 C 3.2491882,53.500755 4.0862222,54.337789 5.1259437,54.337789 L 51.998058,54.337789 C 53.037780,54.337789 53.874813,53.500755 53.874813,52.461033 L 53.874813,26.483932 C 53.874813,25.444210 53.037780,24.607177 51.998058,24.607177 L 5.1259437,24.607177 z "
     id="rect810"
     transform="translate(1.437998,-1.711480)" />
  <path
     style="font-size:12.000000;fill:#ffffff;fill-opacity:1.0000000;fill-rule:evenodd;stroke:#000000;stroke-width:1.8750020;stroke-linejoin:round;stroke-opacity:1.0000000;"
     d="M 39.367692,39.472471 C 39.367692,45.437218 34.526733,50.278176 28.561986,50.278176 C 22.597239,50.278176 17.756291,45.437218 17.756291,39.472471 C 17.756291,33.507724 22.597239,28.666765 28.561986,28.666765 C 34.526733,28.666765 39.367692,33.507724 39.367692,39.472471 z "
     id="path811"
     transform="translate(1.437998,-1.711480)" />
  <path
     style="font-size:12.000000;fill:#000000;fill-opacity:1.0000000;fill-rule:evenodd;stroke:#000000;stroke-width:1.2500014;stroke-linejoin:round;stroke-opacity:1.0000000;"
     d="M 33.704416,39.472487 C 33.704416,42.311100 31.400619,44.614897 28.562018,44.614897 C 25.723403,44.614897 23.419594,42.311100 23.419594,39.472487 C 23.419594,36.633885 25.723403,34.330076 28.562018,34.330076 C 31.400619,34.330076 33.704416,36.633885 33.704416,39.472487 z "
     id="path813"
     transform="translate(1.437998,-1.711480)" />
  <metadata
     id="metadata17">
    <RDF
       id="RDF18">
      <Work
         about=""
         id="Work19">
        <format
           id="format20">image/svg+xml</format>
        <type
           id="type22"
           resource="http://purl.org/dc/dcmitype/StillImage" />
      </Work>
    </RDF>
    <rdf:RDF
       id="RDF23">
      <cc:Work
         rdf:about=""
         id="Work24">
        <dc:format
           id="format25">image/svg+xml</dc:format>
        <dc:type
           id="type27"
           rdf:resource="http://purl.org/dc/dcmitype/StillImage" />
      </cc:Work>
    </rdf:RDF>
  </metadata>
</svg>
