<?xml version="1.0" encoding="UTF-8" standalone="no"?>
<!DOCTYPE svg PUBLIC "-//W3C//DTD SVG 20010904//EN"
"http://www.w3.org/TR/2001/REC-SVG-20010904/DTD/svg10.dtd">
<svg
   height="60"
   width="60"
   _SVGFile__filename="oldscale/devices/hdd_mount.svg"
   version="1.0"
   y="0"
   x="0"
   id="svg1"
   sodipodi:version="0.32"
   inkscape:version="0.40"
   sodipodi:docname="hdd_mount.svg"
   sodipodi:docbase="/home/danny/work/flat/SVG/mono/scalable/devices"
   xmlns="http://www.w3.org/2000/svg"
   xmlns:cc="http://web.resource.org/cc/"
   xmlns:inkscape="http://www.inkscape.org/namespaces/inkscape"
   xmlns:sodipodi="http://sodipodi.sourceforge.net/DTD/sodipodi-0.dtd"
   xmlns:rdf="http://www.w3.org/1999/02/22-rdf-syntax-ns#"
   xmlns:dc="http://purl.org/dc/elements/1.1/"
   xmlns:xlink="http://www.w3.org/1999/xlink">
  <sodipodi:namedview
     id="base"
     pagecolor="#ffffff"
     bordercolor="#666666"
     borderopacity="1.0"
     inkscape:pageopacity="0.0"
     inkscape:pageshadow="2"
     inkscape:zoom="6.5637000"
     inkscape:cx="54.922286"
     inkscape:cy="20.930487"
     inkscape:window-width="1024"
     inkscape:window-height="698"
     inkscape:window-x="0"
     inkscape:window-y="0"
     inkscape:current-layer="svg1" />
  <defs
     id="defs3" />
  <metadata
     id="metadata9">
    <RDF
       id="RDF10">
      <Work
         about=""
         id="Work11">
        <format
           id="format12">image/svg+xml</format>
        <type
           id="type14"
           resource="http://purl.org/dc/dcmitype/StillImage" />
      </Work>
    </RDF>
    <rdf:RDF
       id="RDF15">
      <cc:Work
         rdf:about=""
         id="Work16">
        <dc:format
           id="format17">image/svg+xml</dc:format>
        <dc:type
           id="type19"
           rdf:resource="http://purl.org/dc/dcmitype/StillImage" />
      </cc:Work>
    </rdf:RDF>
  </metadata>
  <g
     id="g1069"
     transform="matrix(1.018650,0.000000,0.000000,1.018650,-0.574070,-0.544930)">
    <path
       style="font-size:12.000000;fill:#ffffff;fill-opacity:1.0000000;fill-rule:evenodd;stroke-width:3.1250000"
       d="M 16.426890,3.1185580 C 15.399790,3.1185580 14.572920,3.9454280 14.572920,4.9725260 L 14.572920,49.034470 C 14.572920,50.061570 15.399790,50.888440 16.426890,50.888440 L 49.873300,50.888440 C 50.900400,50.888440 51.727270,50.061570 51.727270,49.034470 L 51.727270,4.9725260 C 51.727270,3.9454280 50.900400,3.1185580 49.873300,3.1185580 L 16.426890,3.1185580 z "
       id="rect783"
       transform="translate(3.901059e-2,-0.128985)" />
    <rect
       style="font-size:12.000000;fill:#ffffff;fill-opacity:1.0000000;fill-rule:evenodd;stroke:#000000;stroke-width:3.0677872;stroke-linecap:round;stroke-linejoin:round;stroke-opacity:1.0000000"
       rx="1.8539680"
       ry="1.8539680"
       height="47.769878"
       width="37.154346"
       y="7.8070335"
       x="9.7572098"
       id="rect782"
       transform="translate(3.901059e-2,-0.128985)" />
    <path
       style="font-size:12.000000;fill:#ffffff;fill-opacity:1.0000000;fill-rule:evenodd;stroke:#000000;stroke-width:2.4542284;stroke-linecap:round;stroke-linejoin:round;stroke-miterlimit:4.0000000;stroke-opacity:1.0000000"
       d="M 21.073670,11.022730 L 21.073670,22.706500 C 16.446250,25.178960 13.188040,29.901780 13.188040,35.511610 C 13.188040,43.617500 19.768250,50.197710 27.874130,50.197710 C 35.980020,50.197710 42.560230,43.617500 42.560230,35.511610 C 42.560230,32.874690 41.680710,30.525390 40.462210,28.385600 L 40.462210,11.022730 L 21.073670,11.022730 z "
       transform="translate(0.499263,0.952768)"
       id="path621" />
    <path
       style="font-size:12.000000;fill:#ffffff;fill-opacity:1.0000000;fill-rule:evenodd;stroke:#000000;stroke-width:1.8406712;stroke-linecap:round;stroke-linejoin:round;stroke-miterlimit:4.0000000;stroke-opacity:1.0000000"
       d="M 39.211890,35.618020 C 39.211890,41.826780 34.172890,46.865770 27.964130,46.865770 C 21.755370,46.865770 16.716380,41.826780 16.716380,35.618020 C 16.716380,29.409260 21.755370,24.370260 27.964130,24.370260 C 34.172890,24.370260 39.211890,29.409260 39.211890,35.618020 z "
       transform="translate(0.499263,0.952768)"
       id="path619" />
  </g>
</svg>
