<?xml version="1.0" encoding="UTF-8" standalone="no"?>
<!-- Created with Inkscape (http://www.inkscape.org/) -->
<svg
   xmlns:dc="http://purl.org/dc/elements/1.1/"
   xmlns:cc="http://creativecommons.org/ns#"
   xmlns:rdf="http://www.w3.org/1999/02/22-rdf-syntax-ns#"
   xmlns:svg="http://www.w3.org/2000/svg"
   xmlns="http://www.w3.org/2000/svg"
   xmlns:xlink="http://www.w3.org/1999/xlink"
   xmlns:sodipodi="http://sodipodi.sourceforge.net/DTD/sodipodi-0.dtd"
   xmlns:inkscape="http://www.inkscape.org/namespaces/inkscape"
   width="768"
   height="256"
   id="svg2"
   sodipodi:version="0.32"
   inkscape:version="0.46"
   version="1.0"
   sodipodi:docbase="/data/Documents/Images/Logos/LeX-Interactive"
   sodipodi:docname="LeX-Interactive.svg"
   inkscape:output_extension="org.inkscape.output.svg.inkscape">
  <defs
     id="defs4">
    <inkscape:perspective
       sodipodi:type="inkscape:persp3d"
       inkscape:vp_x="0 : 128 : 1"
       inkscape:vp_y="0 : 1000 : 0"
       inkscape:vp_z="768 : 128 : 1"
       inkscape:persp3d-origin="384 : 85.333333 : 1"
       id="perspective2486" />
    <linearGradient
       inkscape:collect="always"
       id="linearGradient12861">
      <stop
         style="stop-color:#000000;stop-opacity:1;"
         offset="0"
         id="stop12863" />
      <stop
         style="stop-color:#000000;stop-opacity:0;"
         offset="1"
         id="stop12865" />
    </linearGradient>
    <linearGradient
       inkscape:collect="always"
       xlink:href="#linearGradient12861"
       id="linearGradient12867"
       x1="181.83253"
       y1="204.84419"
       x2="706.09155"
       y2="204.84419"
       gradientUnits="userSpaceOnUse"
       gradientTransform="translate(-9.8417093e-7,-2.9894472e-6)" />
  </defs>
  <sodipodi:namedview
     id="base"
     pagecolor="#ffffff"
     bordercolor="#666666"
     borderopacity="1.0"
     gridtolerance="10000"
     guidetolerance="10"
     objecttolerance="10"
     inkscape:pageopacity="0.0"
     inkscape:pageshadow="2"
     inkscape:zoom="0.7"
     inkscape:cx="184.6225"
     inkscape:cy="131.5065"
     inkscape:document-units="px"
     inkscape:current-layer="layer1"
     height="256px"
     width="768px"
     inkscape:window-width="1670"
     inkscape:window-height="978"
     inkscape:window-x="1280"
     inkscape:window-y="0"
     showgrid="false" />
  <metadata
     id="metadata7">
    <rdf:RDF>
      <cc:Work
         rdf:about="">
        <dc:format>image/svg+xml</dc:format>
        <dc:type
           rdf:resource="http://purl.org/dc/dcmitype/StillImage" />
      </cc:Work>
    </rdf:RDF>
  </metadata>
  <g
     inkscape:label="Layer 1"
     inkscape:groupmode="layer"
     id="layer1">
    <path
       style="fill:#000000;fill-opacity:1;fill-rule:evenodd;stroke:#000000;stroke-width:0.99999994px;stroke-linecap:butt;stroke-linejoin:miter;stroke-opacity:1"
       d="M 191.43948,12.46964 C 151.9185,55.088907 151.9185,55.088907 151.9185,55.088907 C 137.41966,12.156544 137.41967,12.156544 137.41967,12.156544 C 82.842949,12.156544 82.842949,12.156544 82.842949,12.156544 C 93.42415,49.101562 93.42415,49.101562 93.42415,49.101562 C 101.22083,24.680272 101.22083,24.680272 101.22083,24.680272 C 125.72466,24.993368 125.72466,24.993368 125.72466,24.993368 C 106.23298,91.682253 106.23298,91.682253 106.23298,91.682253 C 171.68255,92.187329 172.18763,91.682253 172.18763,91.682253 L 245.49107,12.380937 C 245.49107,12.380937 244.66406,12.42558 191.43948,12.46964 z"
       id="path2172"
       sodipodi:nodetypes="ccccccccccc" />
    <path
       style="fill:#000000;fill-opacity:1;fill-rule:evenodd;stroke:#000000;stroke-width:0.99999994px;stroke-linecap:butt;stroke-linejoin:miter;stroke-opacity:1"
       d="M 93.42415,50.667028 C 92.22156,54.764584 91.097674,58.592673 90.047322,62.169011 C 75.046281,113.24607 75.046281,112.97261 75.046281,112.97261 C 93.702605,112.97261 93.702605,112.97261 93.702605,112.97261 C 107.34678,97.317937 107.34678,97.317937 107.34678,97.317937 C 93.702605,50.353933 93.702605,51.293207 93.42415,50.667028 z "
       id="path4116"
       sodipodi:nodetypes="csccc" />
    <path
       style="fill:#000000;fill-opacity:1;fill-rule:evenodd;stroke:#000000;stroke-width:0.99999994px;stroke-linecap:butt;stroke-linejoin:miter;stroke-opacity:1"
       d="M 93.42415,113.59879 C 25.760166,189.68049 25.760166,189.68049 25.760166,189.68049 C 80.893789,189.68049 80.893789,189.68049 80.893789,189.68049 C 127.67382,133.94987 127.67382,133.94987 127.67382,133.94987 C 129.90145,139.27246 129.90145,139.27246 129.90145,139.27246 C 137.97657,113.59879 137.97657,113.59879 137.97657,113.59879"
       id="path6056" />
    <path
       style="fill:#000000;fill-opacity:1;fill-rule:evenodd;stroke:#000000;stroke-width:0.99999994px;stroke-linecap:butt;stroke-linejoin:miter;stroke-opacity:1"
       d="M 129.62299,140.83792 C 117.64953,180.28769 117.64953,180.28769 117.64953,180.28769 C 139.36884,180.60078 139.36884,180.60078 139.36884,180.60078 L 139.64728,180.91387 C 139.64728,180.91387 139.64728,181.22697 129.62299,140.83792 z "
       id="path7027" />
    <path
       style="fill:#000000;fill-opacity:1;fill-rule:evenodd;stroke:#000000;stroke-width:0.99999994px;stroke-linecap:butt;stroke-linejoin:miter;stroke-opacity:1"
       d="M 140.37899,181.03498 C 143.16352,190.74088 142.15337,191.24596 142.15337,191.24596 C 197.00853,191.24596 197.00853,191.24596 197.00853,191.24596 C 187.47,160.66329 186.96493,160.66329 186.96493,160.66329 C 180.99446,180.60078 181.1424,181.31507 181.1424,181.31507 C 140.67592,181.49602 140.37899,181.34808 140.37899,181.03498 z"
       id="path7998"
       sodipodi:nodetypes="cccccc" />
    <path
       style="fill:#000000;fill-opacity:1;fill-rule:evenodd;stroke:#000000;stroke-width:0.99999994px;stroke-linecap:butt;stroke-linejoin:miter;stroke-opacity:1"
       d="M 186.35619,159.62353 C 146.81591,159.93662 148.83622,159.93662 148.83622,159.93662 C 153.84838,142.09029 153.84838,142.09029 153.84838,142.09029 C 179.82882,141.89831 179.82882,142.40339 179.82882,142.40339 C 186.63466,159.50242 186.63465,160.1286 186.35619,159.62353 z"
       id="path8969"
       sodipodi:nodetypes="ccccc" />
    <path
       style="fill:#000000;fill-opacity:1;fill-rule:evenodd;stroke:#000000;stroke-width:0.99999994px;stroke-linecap:butt;stroke-linejoin:miter;stroke-opacity:1"
       d="M 180.61234,143.10044 C 188.68746,143.41354 191.71792,142.40339 191.71792,142.40339 L 191.71792,142.40339 L 191.71792,142.40339 C 197.00853,124.24397 197.00853,124.24397 197.00853,124.24397 C 175.32174,124.55707 174.81667,124.05199 174.81667,124.05199 C 180.10727,142.21141 180.61234,143.41354 180.61234,143.10044 z"
       id="path9940"
       sodipodi:nodetypes="ccccccc" />
    <path
       style="fill:#000000;fill-opacity:1;fill-rule:evenodd;stroke:#000000;stroke-width:0.99999994px;stroke-linecap:butt;stroke-linejoin:miter;stroke-opacity:1"
       d="M 174.76484,124.24397 C 156.38697,124.55707 159.69588,124.55707 159.69588,124.55707 C 163.31576,110.46786 163.31576,110.46786 163.31576,110.46786 C 171.4234,110.27587 170.41325,110.78095 170.41325,110.78095 C 173.47623,124.55707 174.48638,124.24397 174.76484,124.24397 z"
       id="path10911"
       sodipodi:nodetypes="ccccc" />
    <path
       style="fill:url(#linearGradient12867);fill-opacity:1;fill-rule:evenodd;stroke:none;stroke-width:1px;stroke-linecap:butt;stroke-linejoin:miter;stroke-opacity:1"
       d="M 166.2883,98.570307 C 169.90819,111.09405 170.91834,111.59913 170.91834,111.59913 C 744.2523,111.91223 747.78783,111.40715 747.78783,111.40715 C 747.23093,91.369168 747.23093,91.369168 747.23093,91.369168 C 171.96101,91.874244 171.45593,91.874244 171.45593,91.874244 C 166.34013,98.378327 166.2883,98.883403 166.2883,98.570307 z"
       id="path11882"
       sodipodi:nodetypes="cccccc" />
    <path
       transform="scale(1.0258467,0.9748045)"
       style="font-size:106.61618042px;font-style:italic;font-weight:bold;fill:#000000;fill-opacity:1;stroke:none;stroke-width:1px;stroke-linecap:butt;stroke-linejoin:miter;stroke-opacity:1;font-family:Arial"
       d="M 192.88911,197.14542 L 208.87113,120.82739 L 224.54079,120.82739 L 208.61084,197.14542 L 192.88911,197.14542 M 234.79635,141.8591 L 248.95631,141.8591 L 247.49867,149.04319 C 251.03863,145.98914 254.33568,143.82003 257.38982,142.53586 C 260.47859,141.21709 263.72358,140.55769 267.12479,140.55763 C 271.6712,140.55769 275.24589,141.85915 277.84888,144.46203 C 280.48646,147.06501 281.80528,150.51824 281.80534,154.82171 C 281.80528,156.76527 281.23264,160.44408 280.08741,165.85815 L 273.58007,197.14542 L 258.63923,197.14542 L 265.19862,165.75403 C 266.17034,161.06879 266.65622,158.27497 266.65627,157.37258 C 266.65622,155.46381 266.08357,153.97146 264.93833,152.89554 C 263.8277,151.785 262.26594,151.2297 260.25305,151.22966 C 258.06654,151.2297 255.63714,152.14941 252.96483,153.98877 C 250.29246,155.82822 248.19276,158.25762 246.66573,161.27698 C 245.55512,163.42878 244.30571,167.81905 242.91751,174.44783 L 238.18017,197.14542 L 223.23933,197.14542 L 234.79635,141.8591 M 291.95678,152.9476 L 294.24736,141.8591 L 301.53558,141.8591 L 303.35763,133.00912 L 320.48494,122.7015 L 316.47642,141.8591 L 325.58669,141.8591 L 323.29611,152.9476 L 314.13378,152.9476 L 309.29232,176.11371 C 308.42465,180.31313 307.99083,182.70782 307.99085,183.29781 C 307.99083,184.44311 308.35524,185.34546 309.08409,186.00486 C 309.81288,186.62957 311.1317,186.94192 313.04055,186.94191 C 313.69993,186.94192 315.34845,186.82045 317.98612,186.5775 L 315.64348,197.666 C 313.07522,198.18659 310.43759,198.44688 307.73056,198.44688 C 302.45526,198.44688 298.62028,197.44042 296.22559,195.42748 C 293.83088,193.37984 292.63353,190.55132 292.63354,186.94191 C 292.63353,185.24134 293.27559,181.31959 294.55971,175.17665 L 299.19294,152.9476 L 291.95678,152.9476 M 377.64537,174.13548 L 340.16312,174.13548 C 340.12839,174.7255 340.11104,175.17667 340.11106,175.489 C 340.11104,179.16784 341.15221,182.13518 343.23458,184.39104 C 345.35161,186.64693 347.91984,187.77486 350.93927,187.77485 C 355.90216,187.77486 359.77185,185.20664 362.54835,180.07017 L 375.92743,182.30869 C 373.32445,187.6881 369.83652,191.73132 365.46364,194.43836 C 361.12537,197.11071 356.24922,198.44688 350.83515,198.44688 C 343.40809,198.44688 337.36929,196.10424 332.71873,191.41896 C 328.06814,186.69898 325.74286,180.4693 325.74287,172.72989 C 325.74286,165.16406 327.84256,158.43115 332.04197,152.53113 C 337.7684,144.54885 345.94161,140.55769 356.5616,140.55763 C 363.32919,140.55769 368.70858,142.65738 372.6998,146.85673 C 376.6909,151.02147 378.68649,156.86939 378.68654,164.40051 C 378.68649,168.00994 378.33943,171.25492 377.64537,174.13548 M 365.04717,165.02521 C 365.08183,164.36583 365.09918,163.8626 365.09923,163.51551 C 365.09918,159.42026 364.17948,156.3488 362.34012,154.30112 C 360.50067,152.25352 358.03656,151.2297 354.94779,151.22966 C 351.85894,151.2297 349.08248,152.39235 346.6184,154.71759 C 344.18897,157.04292 342.54044,160.47879 341.67282,165.02521 L 365.04717,165.02521 M 393.88769,141.8591 L 407.83942,141.8591 L 405.60089,152.58318 C 410.80673,144.5662 416.44642,140.55769 422.51997,140.55763 C 424.67168,140.55769 426.97961,141.09562 429.44377,142.17145 L 423.71732,154.40524 C 422.36375,153.9194 420.92346,153.67646 419.39645,153.67642 C 416.82818,153.67646 414.20789,154.64822 411.53558,156.5917 C 408.89791,158.53527 406.83292,161.1382 405.3406,164.40051 C 403.84823,167.62817 402.37323,172.76462 400.91561,179.80988 L 397.27151,197.14542 L 382.33066,197.14542 L 393.88769,141.8591 M 445.68607,157.52876 L 431.10964,156.27935 C 432.77551,151.35117 435.67344,147.49884 439.80344,144.72232 C 443.96811,141.94592 449.46898,140.55769 456.30605,140.55763 C 463.42069,140.55769 468.67861,141.99797 472.07983,144.8785 C 475.48094,147.72442 477.18152,151.21235 477.18158,155.34229 C 477.18152,157.00821 477.02534,158.77821 476.71305,160.65228 C 476.43535,162.52643 475.41153,167.45464 473.64159,175.43695 C 472.18389,182.03106 471.45507,186.64693 471.45512,189.28456 C 471.45507,191.64455 471.87154,194.26484 472.70453,197.14542 L 458.18016,197.14542 C 457.59012,195.13248 457.22571,193.05014 457.08693,190.89837 C 454.90043,193.32778 452.38426,195.20189 449.53842,196.52071 C 446.69252,197.80483 443.82929,198.44688 440.94873,198.44688 C 436.36755,198.44688 432.58463,196.95453 429.59994,193.96984 C 426.61524,190.95044 425.12289,187.08075 425.12289,182.36075 C 425.12289,177.08549 426.75406,172.86874 430.01641,169.71049 C 433.31345,166.55229 439.17872,164.64348 447.61225,163.98404 C 454.7269,163.39407 459.48159,162.6826 461.87632,161.84963 C 462.50099,159.76732 462.81334,158.10144 462.81338,156.852 C 462.81334,155.25557 462.17128,153.9194 460.88721,152.84348 C 459.60306,151.76764 457.69424,151.2297 455.16075,151.22966 C 452.48838,151.2297 450.37133,151.785 448.8096,152.89554 C 447.28251,153.97146 446.24134,155.51587 445.68607,157.52876 M 459.89809,171.37637 C 458.99571,171.61933 457.79836,171.84492 456.30605,172.05313 C 448.80957,172.95551 443.91606,174.27432 441.6255,176.00959 C 439.99431,177.25902 439.17872,178.94225 439.17874,181.05928 C 439.17872,182.79459 439.80342,184.26958 441.05285,185.48427 C 442.30224,186.66428 443.95076,187.25428 445.99843,187.25427 C 448.25427,187.25428 450.37133,186.71634 452.34959,185.64045 C 454.36249,184.52987 455.85483,183.12429 456.82663,181.42369 C 457.83306,179.68842 458.71806,176.99873 459.48162,173.3546 L 459.89809,171.37637 M 521.43144,176.32194 L 535.95581,178.66458 C 533.56106,185.11987 530.02107,190.03074 525.33584,193.39719 C 520.65052,196.76365 515.21907,198.44688 509.04147,198.44688 C 501.99617,198.44688 496.40855,196.34718 492.27858,192.14778 C 488.14858,187.94839 486.08359,182.16988 486.08359,174.81224 C 486.08359,168.80817 487.33299,163.13378 489.83182,157.78905 C 492.33062,152.44441 496.0962,148.24501 501.12855,145.19085 C 506.16086,142.10209 511.67908,140.55769 517.68321,140.55763 C 524.20786,140.55769 529.41372,142.25827 533.30082,145.65938 C 537.18781,149.0606 539.37427,153.53764 539.86021,159.09052 L 525.64819,160.60022 C 525.30109,157.51145 524.34668,155.23822 522.78496,153.78053 C 521.25787,152.32294 519.24493,151.59412 516.74616,151.59407 C 513.86554,151.59412 511.17585,152.66999 508.67706,154.82171 C 506.17822,156.97351 504.25205,160.20114 502.89855,164.50462 C 501.5797,168.77346 500.9203,172.78198 500.92032,176.53018 C 500.9203,179.79254 501.71853,182.30871 503.31502,184.07869 C 504.91146,185.84869 506.90704,186.73369 509.30176,186.73368 C 511.69643,186.73369 514.00436,185.86605 516.22557,184.13075 C 518.4467,182.39547 520.18199,179.79254 521.43144,176.32194 M 547.04433,152.9476 L 549.33492,141.8591 L 556.62313,141.8591 L 558.44519,133.00912 L 575.57249,122.7015 L 571.56397,141.8591 L 580.67424,141.8591 L 578.38366,152.9476 L 569.22133,152.9476 L 564.37988,176.11371 C 563.51221,180.31313 563.07838,182.70782 563.07841,183.29781 C 563.07838,184.44311 563.4428,185.34546 564.17164,186.00486 C 564.90044,186.62957 566.21926,186.94192 568.1281,186.94191 C 568.78748,186.94192 570.436,186.82045 573.07368,186.5775 L 570.73104,197.666 C 568.16278,198.18659 565.52514,198.44688 562.81812,198.44688 C 557.54282,198.44688 553.70783,197.44042 551.31315,195.42748 C 548.91844,193.37984 547.72109,190.55132 547.7211,186.94191 C 547.72109,185.24134 548.36315,181.31959 549.64727,175.17665 L 554.28049,152.9476 L 547.04433,152.9476 M 594.83419,120.82739 L 609.77503,120.82739 L 606.96386,134.36265 L 592.02302,134.36265 L 594.83419,120.82739 M 590.46126,141.8591 L 605.4021,141.8591 L 593.84508,197.14542 L 578.90423,197.14542 L 590.46126,141.8591 M 636.11673,197.14542 L 623.25824,197.14542 L 612.16974,141.8591 L 626.85028,141.8591 L 630.75469,165.96227 C 631.83054,172.48698 632.47259,176.8252 632.68086,178.97694 C 632.95847,178.38696 634.15582,176.14844 636.27291,172.26137 C 638.42463,168.33964 639.74345,165.97965 640.22937,165.18139 L 653.97286,141.8591 L 670.11105,141.8591 L 636.11673,197.14542 M 721.64914,174.13548 L 684.16689,174.13548 C 684.13216,174.7255 684.11481,175.17667 684.11483,175.489 C 684.11481,179.16784 685.15598,182.13518 687.23835,184.39104 C 689.35538,186.64693 691.9236,187.77486 694.94304,187.77485 C 699.90593,187.77486 703.77562,185.20664 706.55212,180.07017 L 719.9312,182.30869 C 717.32822,187.6881 713.84029,191.73132 709.46741,194.43836 C 705.12914,197.11071 700.25299,198.44688 694.83892,198.44688 C 687.41186,198.44688 681.37306,196.10424 676.7225,191.41896 C 672.07191,186.69898 669.74663,180.4693 669.74663,172.72989 C 669.74663,165.16406 671.84633,158.43115 676.04573,152.53113 C 681.77217,144.54885 689.94538,140.55769 700.56537,140.55763 C 707.33296,140.55769 712.71235,142.65738 716.70357,146.85673 C 720.69467,151.02147 722.69025,156.86939 722.69031,164.40051 C 722.69025,168.00994 722.3432,171.25492 721.64914,174.13548 M 709.05094,165.02521 C 709.0856,164.36583 709.10295,163.8626 709.103,163.51551 C 709.10295,159.42026 708.18325,156.3488 706.34389,154.30112 C 704.50444,152.25352 702.04033,151.2297 698.95155,151.22966 C 695.86271,151.2297 693.08625,152.39235 690.62217,154.71759 C 688.19274,157.04292 686.54421,160.47879 685.67659,165.02521 L 709.05094,165.02521"
       id="text12869" />
    <path
       transform="scale(0.948638,1.0541429)"
       style="font-size:28.80236053px;font-style:normal;font-weight:bold;fill:#808080;fill-opacity:1;stroke:none;stroke-width:1px;stroke-linecap:butt;stroke-linejoin:miter;stroke-opacity:1;font-family:Arial Black"
       d="M 463.44249,225.66102 L 456.18565,225.66102 L 454.51207,229.06442 L 448.0006,229.06442 L 459.87032,208.44711 L 466.81777,208.44711 L 470.44619,229.06442 L 463.78002,229.06442 L 463.44249,225.66102 M 463.00652,221.20284 L 462.20489,213.7913 L 458.46396,221.20284 L 463.00652,221.20284 M 487.54759,229.06442 L 482.2034,229.06442 L 482.68157,226.64547 C 481.68773,227.63931 480.74077,228.34718 479.84071,228.76909 C 478.95,229.191 477.91398,229.40195 476.73264,229.40195 C 475.15751,229.40195 474.01367,228.93316 473.30111,227.99559 C 472.59793,227.04863 472.44323,225.59539 472.83701,223.63585 L 474.7356,214.12882 L 480.48764,214.12882 L 478.85626,222.342 C 478.66873,223.27958 478.70623,223.94526 478.96876,224.33904 C 479.24065,224.73282 479.69069,224.92971 480.31887,224.92971 C 481.0033,224.92971 481.61272,224.66719 482.14715,224.14214 C 482.69093,223.61711 483.09878,222.67484 483.37069,221.31535 L 484.80518,214.12882 L 490.52909,214.12882 L 487.54759,229.06442 M 510.89325,208.44711 L 506.7726,229.06442 L 501.41435,229.06442 L 501.85033,226.85643 C 500.91274,227.79401 500.10173,228.42687 499.41731,228.75502 C 498.50785,229.18631 497.54684,229.40195 496.53426,229.40195 C 494.49972,229.40195 493.09804,228.62845 492.32923,227.08145 C 491.56979,225.53445 491.4104,223.65461 491.85107,221.44192 C 492.34798,218.96673 493.31837,217.07283 494.76224,215.76021 C 496.21548,214.44761 497.85624,213.79131 499.68452,213.7913 C 500.57521,213.79131 501.3534,213.94132 502.01909,214.24133 C 502.68476,214.54137 503.24261,214.99141 503.69266,215.59144 L 505.11309,208.44711 L 510.89325,208.44711 M 502.53944,221.55443 C 502.77382,220.38247 502.69882,219.51052 502.31443,218.93859 C 501.93001,218.35731 501.35809,218.06666 500.59866,218.06665 C 499.93297,218.06666 499.31886,218.34324 498.75632,218.8964 C 498.20314,219.44958 497.7953,220.37778 497.53278,221.681 C 497.28901,222.89986 497.34057,223.79525 497.68748,224.36716 C 498.04375,224.92971 498.56411,225.21099 499.24855,225.21098 C 499.97985,225.21099 500.64553,224.92502 501.24559,224.3531 C 501.84562,223.78118 502.27691,222.84829 502.53944,221.55443 M 514.62012,208.44711 L 520.34403,208.44711 L 519.57053,212.34274 L 513.84662,212.34274 L 514.62012,208.44711 M 513.48097,214.12882 L 519.20487,214.12882 L 516.22338,229.06442 L 510.49947,229.06442 L 513.48097,214.12882 M 520.69562,221.63881 C 521.14566,219.36051 522.28481,217.48536 524.11309,216.01335 C 525.95073,214.532 528.17748,213.79131 530.79333,213.7913 C 533.78418,213.79131 535.87029,214.65857 537.05165,216.39307 C 537.99858,217.79007 538.27048,219.51052 537.86734,221.55443 C 537.40791,223.8515 536.26876,225.73603 534.44988,227.20802 C 532.63096,228.67064 530.37609,229.40195 527.68526,229.40195 C 525.28506,229.40195 523.46616,228.79253 522.22856,227.57368 C 520.70969,226.06418 520.19871,224.08589 520.69562,221.63881 M 526.43359,221.62475 C 526.16169,222.95612 526.23201,223.94057 526.64455,224.57812 C 527.05707,225.21567 527.67119,225.53445 528.48689,225.53445 C 529.31194,225.53445 530.05263,225.22036 530.70894,224.59218 C 531.36524,223.96401 531.83402,222.95612 532.11531,221.5685 C 532.36844,220.27465 532.28875,219.31363 531.87623,218.68545 C 531.47306,218.04791 530.8777,217.72913 530.09014,217.72912 C 529.25569,217.72913 528.50094,218.05259 527.8259,218.69951 C 527.16021,219.33707 526.69611,220.31215 526.43359,221.62475 M 551.22781,208.44711 L 557.89398,208.44711 L 559.56756,223.28426 L 567.10567,208.44711 L 573.57495,208.44711 L 561.80368,229.06442 L 554.89842,229.06442 L 551.22781,208.44711 M 575.93765,208.44711 L 581.66155,208.44711 L 580.88805,212.34274 L 575.16415,212.34274 L 575.93765,208.44711 M 574.79849,214.12882 L 580.5224,214.12882 L 577.5409,229.06442 L 571.817,229.06442 L 574.79849,214.12882 M 601.0694,208.44711 L 596.94875,229.06442 L 591.5905,229.06442 L 592.02647,226.85643 C 591.08888,227.79401 590.27788,228.42687 589.59346,228.75502 C 588.684,229.18631 587.72299,229.40195 586.71041,229.40195 C 584.67586,229.40195 583.27419,228.62845 582.50538,227.08145 C 581.74594,225.53445 581.58655,223.65461 582.02722,221.44192 C 582.52413,218.96673 583.49452,217.07283 584.93839,215.76021 C 586.39163,214.44761 588.03239,213.79131 589.86067,213.7913 C 590.75136,213.79131 591.52954,213.94132 592.19524,214.24133 C 592.8609,214.54137 593.41876,214.99141 593.86881,215.59144 L 595.28924,208.44711 L 601.0694,208.44711 M 592.71559,221.55443 C 592.94997,220.38247 592.87497,219.51052 592.49057,218.93859 C 592.10615,218.35731 591.53423,218.06666 590.77481,218.06665 C 590.10912,218.06666 589.49501,218.34324 588.93247,218.8964 C 588.37929,219.44958 587.97144,220.37778 587.70893,221.681 C 587.46515,222.89986 587.51672,223.79525 587.86363,224.36716 C 588.2199,224.92971 588.74026,225.21099 589.4247,225.21098 C 590.156,225.21099 590.82167,224.92502 591.42174,224.3531 C 592.02177,223.78118 592.45306,222.84829 592.71559,221.55443 M 618.25518,223.01705 L 606.77924,223.01705 C 606.69485,223.93588 606.80736,224.62031 607.11677,225.07035 C 607.53867,225.71728 608.19497,226.04074 609.08568,226.04074 C 609.64822,226.04074 610.21076,225.9001 610.77332,225.61883 C 611.12021,225.44069 611.51399,225.1266 611.95467,224.67656 L 617.49575,225.19692 C 616.33313,226.69704 615.07678,227.77526 613.72669,228.43156 C 612.37656,229.07849 610.56235,229.40195 608.28405,229.40195 C 606.30576,229.40195 604.80564,229.12537 603.78368,228.57219 C 602.76172,228.00965 601.9976,227.12364 601.49131,225.91416 C 600.99439,224.69532 600.91001,223.26552 601.23816,221.62475 C 601.70695,219.29019 602.83204,217.40098 604.61344,215.9571 C 606.39483,214.51324 608.60282,213.79131 611.23742,213.7913 C 613.37508,213.79131 614.99709,214.11477 616.10344,214.76169 C 617.21914,215.40863 617.97389,216.34621 618.36769,217.57442 C 618.77083,218.80265 618.77552,220.40122 618.38176,222.37012 L 618.25518,223.01705 M 612.98131,220.27464 C 613.09381,219.16831 612.95317,218.37606 612.5594,217.89788 C 612.17498,217.41973 611.589,217.18065 610.80145,217.18064 C 609.89199,217.18065 609.09505,217.54161 608.41063,218.26354 C 607.96996,218.71358 607.61368,219.38395 607.34179,220.27464 L 612.98131,220.27464 M 620.4913,221.63881 C 620.94134,219.36051 622.08049,217.48536 623.90877,216.01335 C 625.74641,214.532 627.97315,213.79131 630.589,213.7913 C 633.57986,213.79131 635.66596,214.65857 636.84733,216.39307 C 637.79426,217.79007 638.06616,219.51052 637.66302,221.55443 C 637.20359,223.8515 636.06443,225.73603 634.24555,227.20802 C 632.42664,228.67064 630.17177,229.40195 627.48094,229.40195 C 625.08073,229.40195 623.26184,228.79253 622.02424,227.57368 C 620.50536,226.06418 619.99438,224.08589 620.4913,221.63881 M 626.22927,221.62475 C 625.95737,222.95612 626.02768,223.94057 626.44023,224.57812 C 626.85275,225.21567 627.46686,225.53445 628.28256,225.53445 C 629.10762,225.53445 629.84831,225.22036 630.50462,224.59218 C 631.16091,223.96401 631.6297,222.95612 631.91099,221.5685 C 632.16412,220.27465 632.08442,219.31363 631.67191,218.68545 C 631.26873,218.04791 630.67337,217.72913 629.88582,217.72912 C 629.05137,217.72913 628.29662,218.05259 627.62157,218.69951 C 626.95588,219.33707 626.49178,220.31215 626.22927,221.62475 M 653.31586,208.44711 L 659.70076,208.44711 L 655.58011,229.06442 L 649.19521,229.06442 L 653.31586,208.44711 M 662.73851,214.12882 L 668.06864,214.12882 L 667.59047,216.56184 C 668.5843,215.56802 669.53125,214.86015 670.43133,214.43822 C 671.33139,214.00695 672.36741,213.79131 673.5394,213.7913 C 675.12389,213.79131 676.26773,214.26479 676.97093,215.21172 C 677.68347,216.14931 677.84286,217.60256 677.4491,219.57146 L 675.5505,229.06442 L 669.79847,229.06442 L 671.44392,220.85125 C 671.63142,219.91368 671.58923,219.25269 671.31734,218.86827 C 671.04543,218.4745 670.5954,218.27761 669.96723,218.2776 C 669.27341,218.27761 668.6593,218.54013 668.12489,219.06517 C 667.59047,219.59022 667.18731,220.53248 666.91542,221.89196 L 665.48093,229.06442 L 659.75702,229.06442 L 662.73851,214.12882 M 690.022,208.44711 L 688.88284,214.12882 L 692.0331,214.12882 L 691.20335,218.30573 L 688.05309,218.30573 L 686.99831,223.60773 C 686.86704,224.24528 686.8436,224.66719 686.928,224.87345 C 687.04987,225.19223 687.34521,225.35162 687.81401,225.35162 C 688.2359,225.35162 688.85002,225.22974 689.65634,224.98596 L 689.29069,228.93785 C 687.80931,229.24725 686.45451,229.40195 685.22629,229.40195 C 683.80117,229.40195 682.78859,229.21912 682.18854,228.85347 C 681.58849,228.48781 681.1994,227.93464 681.02126,227.19396 C 680.85249,226.4439 680.93219,225.23443 681.26034,223.56553 L 682.31512,218.30573 L 680.20557,218.30573 L 681.03532,214.12882 L 683.14487,214.12882 L 683.69336,211.38641 L 690.022,208.44711 M 709.55641,223.01705 L 698.08047,223.01705 C 697.99608,223.93588 698.10859,224.62031 698.41799,225.07035 C 698.83989,225.71728 699.4962,226.04074 700.3869,226.04074 C 700.94944,226.04074 701.51199,225.9001 702.07454,225.61883 C 702.42143,225.44069 702.81522,225.1266 703.25589,224.67656 L 708.79697,225.19692 C 707.63436,226.69704 706.378,227.77526 705.02791,228.43156 C 703.67779,229.07849 701.86358,229.40195 699.58528,229.40195 C 697.60698,229.40195 696.10686,229.12537 695.08491,228.57219 C 694.06295,228.00965 693.29882,227.12364 692.79253,225.91416 C 692.29561,224.69532 692.21123,223.26552 692.53939,221.62475 C 693.00817,219.29019 694.13326,217.40098 695.91466,215.9571 C 697.69605,214.51324 699.90404,213.79131 702.53864,213.7913 C 704.6763,213.79131 706.29831,214.11477 707.40467,214.76169 C 708.52037,215.40863 709.27511,216.34621 709.66892,217.57442 C 710.07205,218.80265 710.07674,220.40122 709.68298,222.37012 L 709.55641,223.01705 M 704.28254,220.27464 C 704.39503,219.16831 704.2544,218.37606 703.86063,217.89788 C 703.47621,217.41973 702.89022,217.18065 702.10267,217.18064 C 701.19321,217.18065 700.39627,217.54161 699.71185,218.26354 C 699.27118,218.71358 698.9149,219.38395 698.64301,220.27464 L 704.28254,220.27464 M 714.04272,214.12882 L 719.40098,214.12882 L 718.92281,216.5759 C 719.64474,215.51645 720.31979,214.78983 720.94798,214.39603 C 721.57614,213.99289 722.29339,213.79131 723.09972,213.7913 C 723.94352,213.79131 724.81547,214.05383 725.71556,214.57886 L 723.12784,218.65732 C 722.50903,218.37606 722.00274,218.23542 721.60897,218.23541 C 720.8589,218.23542 720.21666,218.54482 719.68225,219.16361 C 718.91343,220.03557 718.28994,221.66695 717.81178,224.05776 L 716.81326,229.06442 L 711.06123,229.06442 L 714.04272,214.12882 M 728.21889,214.12882 L 733.54902,214.12882 L 733.07085,216.56184 C 734.06467,215.56802 735.01162,214.86015 735.91171,214.43822 C 736.81177,214.00695 737.84779,213.79131 739.01978,213.7913 C 740.60426,213.79131 741.74811,214.26479 742.45131,215.21172 C 743.16385,216.14931 743.32324,217.60256 742.92947,219.57146 L 741.03088,229.06442 L 735.27885,229.06442 L 736.92429,220.85125 C 737.11179,219.91368 737.0696,219.25269 736.79772,218.86827 C 736.52581,218.4745 736.07577,218.27761 735.44761,218.2776 C 734.75379,218.27761 734.13968,218.54013 733.60527,219.06517 C 733.07084,219.59022 732.66768,220.53248 732.3958,221.89196 L 730.9613,229.06442 L 725.2374,229.06442 L 728.21889,214.12882 M 762.26699,223.01705 L 750.79105,223.01705 C 750.70666,223.93588 750.81917,224.62031 751.12858,225.07035 C 751.55048,225.71728 752.20678,226.04074 753.09749,226.04074 C 753.66003,226.04074 754.22257,225.9001 754.78513,225.61883 C 755.13202,225.44069 755.5258,225.1266 755.96648,224.67656 L 761.50756,225.19692 C 760.34494,226.69704 759.08859,227.77526 757.7385,228.43156 C 756.38837,229.07849 754.57416,229.40195 752.29586,229.40195 C 750.31757,229.40195 748.81745,229.12537 747.79549,228.57219 C 746.77353,228.00965 746.00941,227.12364 745.50312,225.91416 C 745.0062,224.69532 744.92182,223.26552 745.24997,221.62475 C 745.71876,219.29019 746.84385,217.40098 748.62525,215.9571 C 750.40664,214.51324 752.61463,213.79131 755.24923,213.7913 C 757.38689,213.79131 759.0089,214.11477 760.11525,214.76169 C 761.23095,215.40863 761.9857,216.34621 762.3795,217.57442 C 762.78264,218.80265 762.78733,220.40122 762.39357,222.37012 L 762.26699,223.01705 M 756.99312,220.27464 C 757.10562,219.16831 756.96498,218.37606 756.57121,217.89788 C 756.18679,217.41973 755.60081,217.18065 754.81326,217.18064 C 753.9038,217.18065 753.10686,217.54161 752.42244,218.26354 C 751.98177,218.71358 751.62549,219.38395 751.3536,220.27464 L 756.99312,220.27464 M 774.74145,208.44711 L 773.60229,214.12882 L 776.75255,214.12882 L 775.9228,218.30573 L 772.77254,218.30573 L 771.71777,223.60773 C 771.5865,224.24528 771.56306,224.66719 771.64745,224.87345 C 771.76932,225.19223 772.06466,225.35162 772.53346,225.35162 C 772.95536,225.35162 773.56947,225.22974 774.3758,224.98596 L 774.01014,228.93785 C 772.52876,229.24725 771.17396,229.40195 769.94575,229.40195 C 768.52062,229.40195 767.50804,229.21912 766.908,228.85347 C 766.30794,228.48781 765.91885,227.93464 765.74071,227.19396 C 765.57195,226.4439 765.65164,225.23443 765.9798,223.56553 L 767.03457,218.30573 L 764.92502,218.30573 L 765.75478,214.12882 L 767.86432,214.12882 L 768.41281,211.38641 L 774.74145,208.44711"
       id="text13842" />
  </g>
</svg>
