<?xml version="1.0" encoding="UTF-8" standalone="no"?>
<svg
   xmlns:dc="http://purl.org/dc/elements/1.1/"
   xmlns:cc="http://web.resource.org/cc/"
   xmlns:rdf="http://www.w3.org/1999/02/22-rdf-syntax-ns#"
   xmlns:svg="http://www.w3.org/2000/svg"
   xmlns="http://www.w3.org/2000/svg"
   xmlns:xlink="http://www.w3.org/1999/xlink"
   xmlns:sodipodi="http://inkscape.sourceforge.net/DTD/sodipodi-0.dtd"
   xmlns:inkscape="http://www.inkscape.org/namespaces/inkscape"
   sodipodi:docbase="/home/danny/work/icons/mono/scalable/mimetypes"
   sodipodi:docname="mime_video.svgz"
   inkscape:version="0.41"
   sodipodi:version="0.32"
   id="svg1"
   x="0"
   y="0"
   version="1.0"
   _SVGFile__filename="oldscale/mimetypes/mime_video.svg"
   width="60"
   height="60">
  <sodipodi:namedview
     inkscape:current-layer="svg1"
     inkscape:window-y="0"
     inkscape:window-x="0"
     inkscape:window-height="691"
     inkscape:window-width="1020"
     inkscape:cy="13.359181"
     inkscape:cx="51.363747"
     inkscape:zoom="5.5303505"
     inkscape:pageshadow="2"
     inkscape:pageopacity="0.0"
     borderopacity="1.0"
     bordercolor="#666666"
     pagecolor="#ffffff"
     id="base" />
  <defs
     id="defs3">
    <linearGradient
       id="linearGradient900">
      <stop
         offset="0"
         id="stop901"
         style="stop-color: #000000;stop-opacity: 1.0;" />
      <stop
         offset="1"
         id="stop902"
         style="stop-color:#ffffff;stop-opacity:1;" />
    </linearGradient>
    <linearGradient
       id="linearGradient903"
       xlink:href="#linearGradient900" />
    <linearGradient
       id="linearGradient904"
       xlink:href="#linearGradient900" />
    <linearGradient
       id="linearGradient905"
       xlink:href="#linearGradient900" />
    <linearGradient
       id="linearGradient906"
       xlink:href="#linearGradient900" />
    <linearGradient
       id="linearGradient907"
       xlink:href="#linearGradient900" />
  </defs>
  <metadata
     id="metadata24">
    <RDF
       id="RDF25">
      <Work
         id="Work26"
         about="">
        <title
           id="title27">Part of the Flat Icon Collection (Thu Aug 26 14:40:35 2004)</title>
        <description
           id="description29" />
        <subject
           id="subject30">
          <Bag
             id="Bag31">
            <li
               id="li32" />
          </Bag>
        </subject>
        <publisher
           id="publisher33">
          <Agent
             id="Agent34"
             about="">
            <title
               id="title35" />
          </Agent>
        </publisher>
        <creator
           id="creator36">
          <Agent
             id="Agent37"
             about="">
            <title
               id="title38">Danny Allen</title>
          </Agent>
        </creator>
        <rights
           id="rights40">
          <Agent
             id="Agent41"
             about="">
            <title
               id="title42">Danny Allen</title>
          </Agent>
        </rights>
        <date
           id="date44" />
        <format
           id="format45">image/svg+xml</format>
        <type
           resource="http://purl.org/dc/dcmitype/StillImage"
           id="type47" />
        <license
           resource="http://creativecommons.org/licenses/LGPL/2.1/"
           id="license48">
          <date
             id="date49" />
        </license>
        <language
           id="language50">en</language>
      </Work>
    </RDF>
    <rdf:RDF
       id="RDF10565">
      <cc:Work
         id="Work10566"
         rdf:about="">
        <dc:format
           id="format10567">image/svg+xml</dc:format>
        <dc:type
           rdf:resource="http://purl.org/dc/dcmitype/StillImage"
           id="type10569" />
      </cc:Work>
    </rdf:RDF>
  </metadata>
  <path
     id="path1097"
     d="M 6.6825975,4.6879105 C 5.5772035,4.6879105 4.6873015,5.5841475 4.6873015,6.6974115 L 4.6873015,53.302589 C 4.6873015,54.415849 5.5772035,55.312089 6.6825975,55.312089 L 53.317398,55.312089 C 54.422798,55.312089 55.312698,54.415849 55.312698,53.302589 L 55.312698,6.6974115 C 55.312698,5.5841475 54.422798,4.6879105 53.317398,4.6879105 L 6.6825975,4.6879105 z "
     style="font-size:12.000000;fill:none;fill-opacity:1.0000000;fill-rule:evenodd;stroke:#ffffff;stroke-width:8.1250000;stroke-linecap:round;stroke-linejoin:round;stroke-miterlimit:4.0000000;stroke-opacity:1.0000000;" />
  <path
     id="rect812"
     stroke-opacity="1.0"
     d="M 6.682599 4.687911 C 5.577205 4.687911 4.687303 5.584148 4.687303 6.697411 L 4.687303 53.30259 C 4.687303 54.41585 5.577205 55.31209 6.682599 55.31209 L 53.3174 55.31209 C 54.4228 55.31209 55.3127 54.41585 55.3127 53.30259 L 55.3127 6.697411 C 55.3127 5.584148 54.4228 4.687911 53.3174 4.687911 L 6.682599 4.687911 z "
     fill-opacity="1.0"
     style="font-size:12;fill: #ffffff;fill-rule:evenodd;stroke: #000000;stroke-width:3.124999;stroke-linecap:round;stroke-linejoin:round;" />
  <g
     transform="translate(-5.500000e-6,0.000000)"
     id="g2106">
    <path
       d="M 29.005774,23.384610 L 19.557705,11.622740"
       style="font-size:12.000000;fill:none;fill-opacity:0.75000000;fill-rule:evenodd;stroke:#000000;stroke-width:2.4999995;stroke-opacity:1.0000000"
       id="path1002" />
    <path
       d="M 30.548311,23.963066 L 40.574828,11.429922"
       style="font-size:12.000000;fill:none;fill-opacity:0.75000000;fill-rule:evenodd;stroke:#000000;stroke-width:2.4999995;stroke-opacity:1.0000000"
       id="path1003" />
    <path
       id="path1004"
       d="M 20.714626,11.526331 C 20.714626,12.111725 20.239518,12.586828 19.654122,12.586828 C 19.068733,12.586828 18.593625,12.111725 18.593625,11.526331 C 18.593625,10.940937 19.068733,10.465834 19.654122,10.465834 C 20.239518,10.465834 20.714626,10.940937 20.714626,11.526331 z "
       style="font-size:12.000000;fill:#000000;fill-opacity:1.0000000;fill-rule:evenodd;stroke:#000000;stroke-width:2.4999995;stroke-linecap:round;stroke-linejoin:round;stroke-opacity:1.0000000" />
    <path
       id="path1005"
       d="M 41.406386,11.333513 C 41.406386,11.918907 40.931278,12.394010 40.345882,12.394010 C 39.760493,12.394010 39.285385,11.918907 39.285385,11.333513 C 39.285385,10.748119 39.760493,10.273016 40.345882,10.273016 C 40.931278,10.273016 41.406386,10.748119 41.406386,11.333513 z "
       style="font-size:12.000000;fill:#000000;fill-opacity:1.0000000;fill-rule:evenodd;stroke:#000000;stroke-width:2.4999995;stroke-linecap:round;stroke-linejoin:round;stroke-opacity:1.0000000" />
  </g>
  <rect
     id="rect1006"
     x="9.8023548"
     y="21.479204"
     width="40.395290"
     height="28.247778"
     ry="1.9999996"
     rx="1.9999996"
     style="font-size:12.000000;fill:#ffffff;fill-opacity:1.0000000;fill-rule:evenodd;stroke:#000000;stroke-width:2.4999995;stroke-linecap:round;stroke-linejoin:round;stroke-opacity:1.0000000" />
  <path
     d="M 14.841803,25.027885 C 14.002285,25.027885 13.326429,25.703742 13.326429,26.543259 L 13.326429,44.694113 C 13.326429,45.533630 14.002285,46.209487 14.841803,46.209487 L 40.061998,46.209487 C 40.901515,46.209487 41.577372,45.533630 41.577372,44.694113 L 41.577372,26.543259 C 41.577372,25.703742 40.901515,25.027885 40.061998,25.027885 L 14.841803,25.027885 z "
     style="font-size:12.000000;fill-rule:evenodd;stroke:#000000;stroke-width:1.2500000;stroke-linecap:round;stroke-linejoin:round;stroke-miterlimit:4.0000000;stroke-opacity:1.0000000"
     id="rect628" />
  <path
     id="path1008"
     d="M 36.344936,45.282341 C 35.470260,42.562555 34.047995,39.932670 31.720553,38.488049 C 29.377370,38.386169 26.427099,38.488049 23.574522,38.488049 C 21.048357,39.832622 19.514095,42.503589 18.558844,45.282341"
     style="font-size:12.000000;fill:#ffffff;fill-opacity:1.0000000;fill-rule:evenodd;stroke:#000000;stroke-width:1.8750000;stroke-linecap:round;stroke-linejoin:round;stroke-miterlimit:4.0000000;stroke-opacity:1.0000000" />
  <path
     id="path1009"
     d="M 34.685364,33.188481 C 34.685364,37.181352 31.444773,40.421943 27.451902,40.421943 C 23.459031,40.421943 20.218440,37.181352 20.218440,33.188481 C 20.218440,29.195610 23.459031,25.955019 27.451902,25.955019 C 31.444773,25.955019 34.685364,29.195610 34.685364,33.188481 z "
     style="font-size:12.000000;fill:#ffffff;fill-opacity:1.0000000;fill-rule:evenodd;stroke:#000000;stroke-width:1.8750000;stroke-linecap:round;stroke-linejoin:round;stroke-miterlimit:4.0000000;stroke-opacity:1.0000000" />
  <g
     style="font-size:12.000000"
     id="g2244"
     transform="matrix(0.757687,0.000000,0.000000,0.757687,7.062974,7.621907)">
    <path
       id="path1011"
       stroke-opacity="1.0"
       d="M 52.9535 24.53592 C 52.9535 25.63292 52.06379 26.52323 50.96754 26.52323 C 49.87129 26.52323 48.98158 25.63292 48.98158 24.53592 C 48.98158 23.43893 49.87129 22.54861 50.96754 22.54861 C 52.06379 22.54861 52.9535 23.43893 52.9535 24.53592 z "
       fill-opacity="1.0"
       style="fill:#000000;fill-rule:evenodd;stroke:#000000;stroke-width:0.82487887;stroke-linecap:round;stroke-linejoin:round;stroke-dasharray:none;stroke-miterlimit:4.0000000" />
    <path
       id="path2242"
       stroke-opacity="1.0"
       d="M 52.9535 36.83673 C 52.9535 37.93372 52.06379 38.82404 50.96754 38.82404 C 49.87129 38.82404 48.98158 37.93372 48.98158 36.83673 C 48.98158 35.73973 49.87129 34.84942 50.96754 34.84942 C 52.06379 34.84942 52.9535 35.73973 52.9535 36.83673 z "
       fill-opacity="1.0"
       style="stroke-miterlimit:4.0000000;stroke-dasharray:none;stroke-linejoin:round;stroke-linecap:round;stroke-width:0.82487887;stroke:#000000;fill-rule:evenodd;fill:#000000" />
    <path
       id="path2243"
       stroke-opacity="1.0"
       d="M 52.9535 30.68632 C 52.9535 31.78332 52.06379 32.67363 50.96754 32.67363 C 49.87129 32.67363 48.98158 31.78332 48.98158 30.68632 C 48.98158 29.58933 49.87129 28.69901 50.96754 28.69901 C 52.06379 28.69901 52.9535 29.58933 52.9535 30.68632 z "
       fill-opacity="1.0"
       style="fill:#000000;fill-rule:evenodd;stroke:#000000;stroke-width:0.82487887;stroke-linecap:round;stroke-linejoin:round;stroke-dasharray:none;stroke-miterlimit:4.0000000" />
  </g>
</svg>
